<svg width="24" height="24" viewBox="0 0 24 24" fill="none" xmlns="http://www.w3.org/2000/svg">
<g id="&#229;&#143;&#150;&#230;&#182;&#136;&#231;&#189;&#174;&#233;&#161;&#182; - 24px">
<g id="Group 1142814007">
<path id="Vector 221" d="M6.55469 3.24414L17.4436 3.24414" stroke="#0F64FF" stroke-width="1.5" stroke-linecap="round"/>
<path id="Vector 223" d="M5 4.79883L19 19.5766" stroke="#0F64FF" stroke-width="1.5" stroke-linecap="round"/>
<path id="Subtract" fill-rule="evenodd" clip-rule="evenodd" d="M7.51257 9.74435L6.50124 10.7557C6.1975 11.0594 6.1975 11.5519 6.50124 11.8556C6.80498 12.1594 7.29745 12.1594 7.60119 11.8556L8.58431 10.8725L7.51257 9.74435ZM10.7849 8.67189L9.71318 7.54374L11.451 5.80593C11.7547 5.50219 12.2472 5.50219 12.5509 5.80593L17.5007 10.7557C17.8044 11.0594 17.8044 11.5519 17.5007 11.8556C17.1969 12.1594 16.7045 12.1594 16.4007 11.8556L12.7787 8.23362V10.7706L11.2232 9.13322V8.23362L10.7849 8.67189ZM11.2232 13.6503V20.3559C11.2232 20.7855 11.5714 21.1337 12.001 21.1337C12.4305 21.1337 12.7787 20.7855 12.7787 20.3559V15.2877L11.2232 13.6503Z" fill="#0F64FF"/>
</g>
</g>
</svg>
