<svg width="24" height="24" viewBox="0 0 24 24" fill="none" xmlns="http://www.w3.org/2000/svg">
<g id="&#232;&#190;&#147;&#229;&#133;&#165;&#230;&#161;&#134;icon">
<g id="Group 1142813932">
<path id="Rectangle 943" d="M3.25 5C3.25 4.44772 3.69772 4 4.25 4H7.96628C8.1907 4 8.40859 4.07548 8.58491 4.21431L12 6.90323H19.75C20.3023 6.90323 20.75 7.35094 20.75 7.90323V18C20.75 18.5523 20.3023 19 19.75 19H4.25C3.69772 19 3.25 18.5523 3.25 18V5Z" stroke="#666666" stroke-width="1.5" stroke-linejoin="round"/>
<path id="Vector 210" d="M11.25 16.3604C11.25 16.7746 11.5858 17.1104 12 17.1104C12.4142 17.1104 12.75 16.7746 12.75 16.3604L11.25 16.3604ZM12.75 16.3604L12.75 11.3604L11.25 11.3604L11.25 16.3604L12.75 16.3604Z" fill="#666666"/>
<path id="Rectangle 945" d="M8.99609 13.6475L12.0004 10.4671L15.0047 13.6475" stroke="#666666" stroke-width="1.5" stroke-linecap="round" stroke-linejoin="round"/>
</g>
</g>
</svg>
