<svg width="24" height="24" viewBox="0 0 24 24" fill="none" xmlns="http://www.w3.org/2000/svg">
<g id="&#229;&#175;&#188;&#232;&#136;&#170;&#230;&#160;&#143;&#229;&#155;&#190;&#230;&#160;&#135;">
<path id="vector" d="M5.464 15.7153L4.5 19L8.21429 17.955C9.30952 18.5003 10.5714 18.7789 12 18.7906C14.4766 18.7193 16.423 17.9578 17.8394 16.506C19.2558 15.0543 19.976 13.3507 20 11.3953C19.976 9.43992 19.2587 7.73634 17.848 6.28458C16.4373 4.83283 14.488 4.0713 12 4C9.512 4.0713 7.56267 4.83283 6.152 6.28458C4.74133 7.73634 4.024 9.43992 4 11.3953C4 12.1773 4.12495 12.9358 4.37486 13.6708C4.62476 14.4058 4.98781 15.0873 5.464 15.7153Z" stroke="white" stroke-width="1.5" stroke-linejoin="round"/>
<path id="Ellipse 2057" d="M15.5 13C14.745 14.206 13.4592 15 12 15C10.5408 15 9.25501 14.206 8.5 13" stroke="white" stroke-width="1.5" stroke-linecap="round"/>
</g>
</svg>
