<svg width="18" height="17" viewBox="0 0 18 17" fill="none" xmlns="http://www.w3.org/2000/svg">
<g id="Group 1142814083">
<path id="vector" d="M2.464 12.7153L1.5 16L5.21429 14.955C6.30952 15.5003 7.57143 15.7789 9 15.7906C11.4766 15.7193 13.423 14.9578 14.8394 13.506C16.2558 12.0543 16.976 10.3507 17 8.39531C16.976 6.43992 16.2587 4.73634 14.848 3.28458C13.4373 1.83283 11.488 1.0713 9 1C6.512 1.0713 4.56267 1.83283 3.152 3.28458C1.74133 4.73634 1.024 6.43992 1 8.39531C1 9.17732 1.12495 9.93581 1.37486 10.6708C1.62476 11.4058 1.98781 12.0873 2.464 12.7153Z" stroke="#0F64FF" stroke-width="1.5" stroke-linejoin="round"/>
<path id="Ellipse 2057" d="M12.5 10C11.745 11.206 10.4592 12 9 12C7.54078 12 6.25501 11.206 5.5 10" stroke="#0F64FF" stroke-width="1.5" stroke-linecap="round"/>
</g>
</svg>
