<svg width="500" height="96" viewBox="0 0 500 96" fill="none" xmlns="http://www.w3.org/2000/svg">
<g opacity="0.2">
<mask id="mask0_10_35501" style="mask-type:luminance" maskUnits="userSpaceOnUse" x="0" y="0" width="99" height="96">
<path fill-rule="evenodd" clip-rule="evenodd" d="M0 0H98.3146V95.5056H0V0Z" fill="white"/>
</mask>
<g mask="url(#mask0_10_35501)">
<path fill-rule="evenodd" clip-rule="evenodd" d="M95.6759 45.4202L95.9445 45.1661V44.7891C95.8123 44.5322 95.4086 44.7891 95.2736 45.1661C95.14 45.6758 95.5423 45.6758 95.6759 45.4202ZM92.8598 43.6467C92.992 43.5183 92.8598 43.3926 92.7247 43.2641C92.4547 43.1385 92.0538 43.2641 91.7852 43.5183V43.6467C91.7852 43.7724 92.0538 44.0265 92.3239 44.0265C92.5911 44.1522 92.8598 43.8995 92.8598 43.6467ZM19.1956 90.8075C18.7905 91.3171 18.256 91.3171 17.8523 90.9359C17.7187 90.8075 17.7187 90.4291 17.8523 90.0479C18.121 89.4153 16.2446 89.6695 16.2446 89.2883C16.3769 89.1598 16.3769 89.0355 16.3769 88.9071C16.3769 88.2732 15.8396 88.1502 15.5709 88.0218C14.4978 86.8796 15.8396 87.1337 14.4978 86.1172C14.0941 85.9929 13.8282 85.7374 13.6932 85.359C13.5596 84.4696 13.4232 84.2155 13.4232 84.2155C13.2896 83.7072 13.0209 83.837 12.7537 83.4545C12.62 83.2031 12.4864 82.8219 12.2178 81.8096C12.2178 81.6811 11.2782 80.9201 11.4118 80.666C11.5441 80.4146 10.7409 79.3981 10.6073 79.2725C10.4737 78.7656 10.6073 78.7656 10.4737 78.383C10.205 78.133 9.93637 77.2436 9.80135 77.1152C9.53271 76.7395 9.66772 76.484 9.66772 76.3542C9.53271 75.7202 9.13043 75.3418 9.13043 75.0891C9.13043 74.7079 8.99542 74.3295 8.99542 74.3295C8.72677 74.2024 8.72677 73.8212 8.59314 73.5657C8.45813 72.9332 8.32589 72.9332 8.32589 72.3006C8.05725 71.6639 8.05725 71.2841 7.92223 70.9043C7.25131 68.2429 7.11769 66.087 6.84904 64.9448C6.84904 64.6935 6.98267 64.6935 6.98267 63.8054C6.84904 61.1426 6.44816 59.495 6.71402 56.7037C6.98267 55.1818 6.58318 55.6914 7.11769 54.5492C7.25131 54.4249 7.25131 53.9153 7.25131 53.9153C7.25131 52.9029 7.51857 51.7608 7.79 50.8713C7.79 49.7305 8.05725 49.7305 8.45813 48.4654C8.59315 48.3384 8.59314 48.2113 8.59314 48.0856C8.72677 47.7031 8.86179 47.1976 8.99542 46.8164C8.99542 46.5636 9.13043 46.4352 9.13043 46.3095C9.26406 46.1838 9.26406 46.054 9.26406 45.9283C9.39908 45.5485 9.53271 45.4201 9.66772 45.166C9.80135 45.0403 9.80135 44.7889 9.93637 44.532C9.93637 44.1522 10.4737 44.1522 10.3372 43.7724C10.3372 43.2642 10.6073 43.0114 10.7409 42.7587C10.7409 42.6302 11.1432 42.5059 11.1432 42.1248C11.1432 40.9853 11.4118 41.6206 11.9491 40.4785C11.9491 40.3514 12.0841 40.2216 12.0841 40.0973C12.2178 39.9716 12.3514 39.9716 12.4864 39.7147C12.7537 39.3377 12.7537 39.2078 12.8859 39.0835C13.1545 38.5753 13.1545 38.7024 13.2896 38.4496C13.8282 37.8129 14.3627 37.0519 14.4978 36.9276C14.9014 36.2937 14.9014 36.1666 15.1687 35.7855C15.3023 35.53 15.5709 35.5299 15.8396 35.4043C16.3769 35.1501 16.3769 34.9015 16.3769 34.6447C16.3769 34.519 16.3769 34.3919 16.5091 34.2649C16.6441 34.2649 16.9128 33.7566 16.9128 33.7566C17.5837 33.6309 17.7187 33.1254 18.121 32.8713C18.6569 32.4901 18.7905 32.236 18.9269 31.9833C19.0605 31.7291 19.9973 31.0952 19.9973 31.0952C21.6092 30.4613 21.3405 30.2058 22.5474 29.4462C23.2197 29.0677 23.8906 28.9379 24.2929 28.4324C24.6951 27.9256 26.0356 27.7985 26.307 27.6728C26.8429 27.2916 27.3774 27.0389 27.9175 26.7861C28.7192 26.405 28.5856 26.9132 29.3943 26.2779C29.5266 26.1495 30.4647 26.2779 30.4647 25.8967C30.4647 25.5183 33.8207 25.3885 33.9543 25.0114C34.0879 24.6289 35.6984 24.7545 36.0993 24.7545C36.0993 24.7545 36.773 24.6289 36.773 24.5018C36.9038 24.5018 38.1134 24.6289 38.5171 24.5018C39.3189 24.2477 39.4567 24.6289 40.1262 24.6289C40.2612 24.6289 41.603 24.5018 41.603 24.6289C42.0039 24.6289 42.5426 24.6289 42.8112 24.7545C43.0771 24.883 43.8816 24.6289 44.1503 24.883C44.8212 25.3885 44.2853 25.1371 46.0294 25.3885C46.5667 25.5183 47.3712 25.771 47.7749 26.0238C48.0435 26.1495 49.1167 26.405 49.1167 26.5306C49.3854 27.0389 51.1281 26.9132 51.1281 27.5444C51.1281 27.9256 52.2027 27.4201 52.6049 28.1797C52.875 28.5595 53.8118 28.9379 53.9468 29.0677C54.2154 29.1934 55.2886 30.3342 55.8259 30.714C56.4982 30.9654 57.3027 32.1103 57.7036 32.7429C57.8372 32.8713 57.9723 32.997 58.1087 32.997C58.5082 33.3754 59.0455 34.1378 59.4477 34.6447C59.4477 34.7731 59.5827 34.9015 59.5827 35.0272L59.8514 35.4043C59.9864 35.5299 60.1186 35.6598 60.1186 35.7855C60.2453 36.0258 60.4068 36.534 60.6559 36.8006C60.7951 37.1003 60.8021 37.5864 61.0582 38.1955C61.1932 38.3198 61.3268 38.5753 61.4605 38.8267C61.5955 39.2078 61.5955 39.3377 61.5955 39.589C61.5955 39.7147 61.7291 39.9716 61.7291 40.0973C61.8641 40.4785 61.9978 40.8569 62.13 41.1096C62.2664 41.4908 62.2664 42.1248 62.5337 42.883C62.5337 43.0114 62.4014 43.3926 62.4014 43.5183C62.4014 44.0265 62.5337 44.6605 62.5337 45.166C62.5337 45.4201 62.6701 45.8013 62.6701 45.9283C62.9373 45.8013 63.0723 45.4201 63.0723 45.166C63.2032 44.6605 63.341 44.0265 63.341 43.8995C63.341 43.1385 63.4718 42.6302 63.4718 42.2504C63.341 41.2395 63.4718 41.2395 63.341 40.6041C63.341 40.6041 63.341 40.4785 63.2032 40.0973C63.2032 39.9716 63.2032 39.7147 63.0723 39.589V39.0835C62.9373 38.8267 62.9373 38.5753 62.9373 38.5753C63.0723 38.4496 63.0723 38.3198 62.9373 38.1955C62.9373 37.6872 62.5337 37.3061 62.6701 37.0519C62.4014 36.6735 62.2664 36.5451 62.2664 36.418C61.9978 36.1666 62.13 35.7855 61.9978 35.6598C61.7291 35.1501 61.5955 34.9015 61.4605 34.7731C61.1932 34.1378 61.0582 33.2484 60.7909 33.2484C60.7909 33.1254 60.5223 32.7429 60.5223 32.7429C60.3873 32.4901 59.9864 31.9833 59.8514 31.8548C59.715 31.348 59.0455 30.4613 59.0455 30.3342C58.1087 29.0677 58.1087 29.5718 57.5714 28.6879C57.1649 28.304 57.0341 28.1797 56.4982 27.5444C56.4982 27.5444 56.0931 27.2916 55.9595 27.2916L55.2886 26.6563C55.0186 26.5306 54.7499 26.7861 53.9468 25.771L53.5431 25.3885C52.4699 24.883 53.2759 25.3885 51.3953 24.2477C51.1323 24.0626 51.0655 23.9949 50.9833 23.948C50.8984 23.8982 50.8038 23.872 50.4586 23.7408C50.3222 23.6165 49.3854 23.4867 49.3854 23.4867C48.9817 23.3582 48.9817 23.1096 48.7117 23.1096C47.3712 22.6 48.4458 23.1096 47.3712 22.7271C47.3712 22.7271 46.7003 22.8527 46.5667 22.4743C46.5667 22.3459 45.8958 22.4743 45.7608 22.3459C45.4921 22.3459 44.9562 21.9647 44.6876 21.9647C44.2853 21.9647 44.2853 21.8432 43.748 21.8432C42.8112 21.8432 41.8689 21.5876 41.4694 21.5876C38.5171 21.3349 39.053 21.3349 36.9038 21.4592C36.503 21.5876 34.8911 21.4592 34.8911 21.8432C34.8911 21.8432 33.2806 21.8432 33.0148 21.9647C31.8066 22.3459 31.5379 21.9647 31.1356 22.3459C30.5983 22.8527 30.1947 22.4743 29.6588 22.8527C29.5266 22.9812 28.7192 23.1096 28.452 23.2353C28.1847 23.3582 27.5124 23.4867 27.3774 23.6165C27.2438 23.9935 26.0356 24.5018 26.0356 24.2477C25.7697 24.2477 25.5011 24.7545 25.2324 24.7545C24.8301 24.7545 24.5601 25.0114 24.2929 25.1371C24.0242 25.26 23.7556 25.1371 23.6219 25.3885C23.3282 25.626 23.2531 25.6398 22.6824 26.0238C22.2815 26.2779 21.6092 26.405 21.3405 26.7861C21.0747 27.166 20.401 27.4201 20.1309 27.6728C19.7315 27.7985 19.0605 28.1797 18.7905 28.4324C18.3896 28.8136 17.9874 28.4324 17.8523 29.0677C17.5837 29.5718 16.9128 29.953 16.9128 29.953C16.1082 30.2058 15.8396 30.8411 15.5709 31.0952C15.1687 31.348 15.1687 31.4736 15.0364 31.8548C14.9014 31.8548 14.3627 32.3617 14.3627 32.4901L13.6932 32.997C13.2896 33.1254 13.0209 33.7566 12.8859 33.8851C12.8859 33.8851 12.7537 34.2649 12.4864 34.6447C12.3514 34.9015 12.0841 35.0272 11.9491 35.0272C11.6791 35.1501 11.5441 35.2772 11.4118 35.4043C11.2782 35.6598 11.2782 35.7855 11.2782 35.7855L11.0096 36.6735C10.8759 37.0519 10.3372 37.0519 10.205 37.3061C9.93637 37.5616 9.93637 37.8129 9.80135 38.1955C9.66772 38.5753 9.53271 38.9551 9.39908 39.0835C9.13043 39.3377 8.86179 39.4634 8.72677 39.589C8.59314 39.7147 8.59314 39.9716 8.59314 40.0973C8.86179 40.6041 8.45813 40.8569 8.19087 40.8569C7.51857 41.3651 7.65776 40.9853 7.65776 42.2504C7.65776 42.5059 7.51857 43.0114 6.98267 43.1385C6.84904 43.1385 6.84904 43.3926 6.84904 43.6467C6.84904 44.0265 6.98267 44.532 6.44816 44.532C5.90948 44.532 5.90948 43.3926 5.50721 43.7724C4.8349 44.4077 4.16538 44.0265 4.03314 43.6467C3.89813 43.3926 3.89813 43.1385 4.29761 43.2642C4.56904 43.3926 4.70267 43.2642 4.70267 42.7587C4.70267 42.3775 5.23996 42.2504 5.37498 42.3775C5.90948 42.883 6.31454 42.2504 6.04589 41.8734C5.63945 41.4908 5.90948 41.2395 5.77586 40.9853C5.63945 40.7312 5.23996 40.4785 4.97131 41.4908C4.8349 42.2504 3.89813 41.8734 3.62948 41.6206C2.68992 40.4785 2.5549 40.4785 2.28626 40.6041C1.75036 40.8569 2.01901 41.8734 1.07945 41.9963C-0.93191 42.2504 0.408529 39.8432 0.8108 40.9853C0.945819 41.3651 1.48172 40.7312 1.21446 40.4785C1.21446 40.3514 1.07945 40.2216 1.07945 40.0973C0.945819 39.9716 0.945819 39.7147 0.945819 39.589V39.0835C1.07945 38.8267 1.21446 38.4496 1.3467 38.1955C1.61534 37.8129 2.15402 37.6872 1.48172 37.0519C1.07945 36.418 1.07945 35.9111 1.3467 35.4043C1.48172 35.1501 1.61534 34.9015 1.88538 34.7731C2.28626 34.1378 1.75036 33.5052 2.28626 33.1254C2.5549 32.997 2.68992 32.8713 2.82355 32.7429C3.22582 32.1103 3.0908 31.3479 3.7645 30.3342C3.89813 30.2058 4.56904 29.8246 4.43263 28.9379C4.29761 28.4324 5.10633 27.9256 5.63945 27.4201C6.17813 26.9132 6.58318 25.8967 6.84904 25.6426C7.51857 25.0114 6.84904 26.0238 7.65776 24.883C7.92223 24.6289 7.78999 24.5018 8.19087 24.122C8.45813 23.7408 9.13043 23.6165 9.39908 23.1096C9.66772 22.0918 10.6073 21.7106 11.2782 21.2065C11.2782 21.2065 12.62 20.0657 12.62 19.9372C12.62 19.5588 13.4232 19.3061 13.8282 19.1776L14.6314 18.4166C16.2446 17.6542 15.8396 17.2758 17.5837 16.3878C17.8523 16.2593 18.121 16.1336 18.256 16.0093C18.7905 15.7525 19.3292 15.2456 19.4628 15.2456C19.7315 15.1213 20.1309 14.8672 20.401 14.8672C20.536 14.7415 19.8665 14.8672 20.401 14.613C20.9397 14.3603 21.6092 14.2332 21.7428 14.1062C22.0115 14.1062 23.0846 13.5993 23.3533 13.4722C23.7556 13.4722 23.8906 13.4722 24.1592 13.3452C24.4265 13.3452 24.2929 13.0911 24.8301 13.0911C24.9638 12.9654 25.6347 12.4585 25.7697 12.4585C26.4406 12.3315 26.307 12.5856 26.5742 12.4585C26.8429 12.3315 26.9779 12.3315 26.9779 12.3315C27.1115 12.2016 27.3774 11.953 27.6488 11.953C28.0511 11.826 28.7192 11.826 28.9879 11.826C29.3943 11.826 29.3943 11.5705 29.6588 11.5705C29.7938 11.5705 31.1356 11.0636 31.1356 11.0636C31.2693 10.9365 31.5379 10.8081 32.0752 10.8081C32.4789 10.8081 33.552 11.0636 33.8207 10.6824L34.3566 10.5567C34.6238 10.6824 34.8911 10.6824 35.1597 10.5567H35.2948C36.8927 10.4131 37.0249 10.391 37.1572 10.3758L38.1134 10.2998C39.8575 10.2998 37.7098 9.79435 42.1375 10.4283C42.5426 10.4283 42.9435 10.5567 43.4808 10.5567C43.8816 10.6824 44.2853 10.6824 44.6876 10.8081C45.0912 10.8081 45.4921 11.0636 45.8958 11.0636C45.8958 11.0636 46.5667 11.0636 47.104 11.3177C47.9071 11.5705 49.789 11.826 49.789 12.3315C49.654 12.5856 50.7244 12.7099 50.8594 12.7099C51.8004 12.5856 53.0072 13.2209 53.0072 13.4722C53.0072 13.8548 53.9468 13.9777 54.0804 13.9777L55.4222 14.613C55.8259 15.2456 56.2296 14.9929 56.4982 15.2456C56.629 15.4983 57.1649 15.7525 57.4336 16.0093C57.4336 16.1336 57.8372 16.2593 57.8372 16.2593C58.2395 16.3878 58.5082 16.6405 58.7768 16.7662C59.5827 17.1474 60.3873 17.7813 60.6559 18.0354C60.9246 18.2882 61.5955 18.5423 61.8641 18.7978L62.2664 19.1776C63.0723 19.9372 63.8755 20.6996 64.0077 20.9537C64.4128 21.3349 64.6814 21.9647 64.9515 22.2216C65.2173 22.3459 65.6196 22.6 65.756 22.7271C66.4255 23.2353 66.8278 23.9935 67.3665 24.883C67.901 25.771 68.036 25.771 68.4383 26.6563C68.4383 26.7861 69.1092 27.166 69.1092 27.7985C69.2442 28.9379 69.6451 28.5595 70.1838 29.6989C70.5846 30.4613 70.451 30.2058 70.5846 30.8411C70.9883 32.3617 71.1205 31.9833 71.3906 32.7429C71.3906 32.7429 71.5242 32.8713 71.5242 33.1254C71.6592 33.7566 71.6592 34.1378 71.7943 34.6447C71.7943 35.0272 71.9265 35.2772 72.0629 35.4043C72.3288 35.7855 72.5988 36.2937 72.5988 36.8006C72.4638 37.1818 72.5988 37.6872 72.5988 38.1955C72.7074 38.5076 72.7269 38.7341 72.731 38.7341C72.731 38.8529 72.7408 38.9648 72.8674 39.0835V39.589V40.0973C72.8674 41.1096 72.8674 41.6206 72.731 43.6467C72.731 43.7724 72.5988 44.532 72.5988 45.166C72.4638 45.4201 72.4638 45.6756 72.4638 45.9283C72.5988 46.1838 72.5988 46.5636 72.4638 46.8164C72.4638 47.3219 72.4638 47.9572 72.3288 48.0856C72.1937 48.2113 72.1937 48.3384 72.1937 48.4654C71.9265 48.9695 71.9265 49.4778 71.6592 49.6035C71.5242 49.7305 71.5242 49.9846 71.3906 50.2388C71.3906 50.6213 71.1206 50.6213 71.2556 50.9984C71.2556 51.6323 70.8519 51.7608 70.7197 52.2662V53.1543C70.5846 53.6625 70.451 53.6625 70.3174 53.9153C70.3174 54.0424 69.3778 55.1818 69.5101 55.1818C69.7801 55.313 68.7055 56.8294 67.901 57.973C67.6337 58.2243 66.4255 59.6207 66.0247 59.8748C65.756 60.0005 65.6196 60.2546 65.351 60.5087C65.351 60.6371 64.815 60.8871 64.6814 61.0183C64.2805 61.394 63.8755 61.5238 63.8755 61.7766C63.6082 62.2807 62.4014 62.7917 61.7291 63.2972L59.8514 64.1866C59.4477 64.438 58.9132 64.5623 58.5082 64.6935C58.3773 64.6935 58.2395 64.8178 58.1087 64.8178C57.0341 65.0733 57.4336 65.4517 57.8372 65.4517H58.5082C59.4477 65.326 60.1186 65.4517 60.9246 65.199C62.13 64.9448 63.4718 64.0582 64.1455 63.6784C65.0823 63.2972 65.2173 63.1701 65.756 62.6605C66.0247 62.4132 66.5592 62.4133 67.0992 62.1577C67.0992 62.0279 67.3665 61.5238 67.7674 61.1426C68.1668 60.8871 69.1092 60.2546 68.9742 59.8748C68.8405 59.2408 70.3174 58.7354 70.5846 58.2243C70.8519 57.7175 71.1205 57.8459 71.5242 57.3377C71.5242 57.212 71.6592 56.5781 71.7943 56.4524C71.9265 56.1996 72.1937 55.9441 72.3288 55.8157C72.4638 55.4359 72.3288 55.313 72.4638 55.1818C72.731 54.5492 72.9997 54.0424 73.1361 53.9153C73.2683 53.6625 73.537 53.2814 73.537 53.1543C73.8056 52.3961 73.4047 52.6488 73.8056 52.0149C74.4779 50.7443 74.2079 50.9984 74.4779 49.9846L74.8802 48.5883C74.9066 48.2417 75.0319 47.5594 75.1474 47.4531C75.2811 47.3219 75.2811 47.0705 75.4161 46.8164C75.4161 46.5636 75.4161 46.1838 75.2811 45.9283C75.2811 45.6756 75.4161 45.4201 75.4161 45.2958C75.5497 44.916 75.5497 44.1522 75.5497 44.1522V43.6467C75.5497 42.6302 75.8197 41.4908 75.8197 40.6041C75.8197 40.4785 75.6847 40.3514 75.6847 40.0973C75.6847 39.9716 75.6847 39.7147 75.5497 39.589V39.0835L75.4161 38.1955V37.8129V37.1818C75.4161 37.0519 75.2811 36.9276 75.2811 36.8006C75.1474 36.418 75.0124 36.0382 75.0124 35.7855V35.4043V35.0272C74.8802 34.9015 74.8802 34.7731 74.8802 34.6447C74.8802 34.2649 74.8802 33.8851 74.7438 33.7566C74.6101 33.6309 74.6101 33.1254 74.6101 32.7429C74.4779 32.1103 74.3415 31.3479 74.2079 31.4736C74.0729 31.4736 73.537 30.0815 73.537 29.8246C73.6706 29.4462 73.2683 29.1934 73.2683 29.0677C73.1361 28.6879 72.8674 28.1797 72.731 27.9256C72.731 27.7985 72.731 27.166 72.4638 27.166C72.0629 27.0389 72.1937 26.1495 72.0629 26.0238C71.6592 25.771 71.5242 25.0114 71.1205 25.0114C70.9883 25.0114 70.046 23.7408 69.9151 23.4867C69.3778 22.4743 69.5101 22.4743 68.5719 21.4592C68.4383 21.3349 68.1668 20.9537 68.1668 20.9537C68.1668 20.5725 67.4987 20.4469 67.3665 20.19C67.2301 20.0657 66.9614 19.9372 66.8278 19.6859C66.5592 19.4317 66.6928 19.0519 66.0247 18.6707C65.8882 18.6707 65.8882 18.4166 65.6196 18.2882C65.3509 18.0354 64.9515 17.5299 64.6814 17.1474C64.545 16.896 64.4128 16.5135 63.7405 16.3878L63.2032 15.8795C62.5337 15.374 62.9373 15.2456 61.9978 14.9928C61.4605 14.8672 61.3268 14.613 61.1932 14.2332C60.9246 13.7278 60.6559 13.9777 60.3873 13.8548C59.4477 13.2209 59.8514 13.9777 59.3141 13.0911C59.3141 13.0911 58.9132 13.0911 58.5082 12.7099C57.3027 12.0759 57.9723 12.4585 56.8977 11.6975C55.6909 11.4448 55.9595 10.9365 55.6909 10.5567C54.7499 9.92003 54.8863 10.4283 53.9468 10.2998C53.5431 10.1742 52.4699 9.79435 52.3363 9.1618C52.2027 7.51414 51.1281 9.41455 50.5908 8.65494C49.654 7.26002 48.5794 8.90768 48.0435 7.6412C47.5076 6.1206 48.5794 7.26002 48.7117 6.49902C48.8481 5.86509 47.9071 5.73941 47.7749 6.2449C47.3712 8.14669 47.5077 6.62471 46.1644 6.62471C45.6271 6.62471 45.4921 5.99354 46.1644 5.35823C46.5667 5.10548 46.8353 4.85136 46.969 4.7243C47.239 4.21605 46.969 3.83763 46.2967 3.7078C46.0294 3.7078 46.0294 3.58212 46.0294 3.32938C46.1644 2.94819 46.2967 2.56839 46.4317 2.56839C46.5667 2.3115 46.7003 2.18996 46.7003 1.93722C46.969 1.17347 46.1644 0.670741 45.7608 1.93722C45.7608 2.06014 45.6271 2.18996 45.6271 2.3115C45.6271 2.69407 44.4203 2.3115 44.2853 1.93722C44.8212 1.55603 44.6876 1.30191 44.6876 1.04778C44.5526 0.919341 44.5526 0.795041 44.5526 0.670741C44.4203 0.159731 44.8212 -0.0930126 45.0912 0.0312873C45.2249 0.159731 45.4921 0.540917 45.4921 0.540917C45.8958 0.919341 46.4317 0.159731 46.8353 0.288174C47.3712 0.540917 47.3712 0.670741 47.6385 1.04778C47.7749 1.17347 47.9071 1.42621 48.3122 1.80601C48.8481 2.18996 49.1167 2.06014 49.3854 1.93722C49.5176 1.93722 49.789 1.80601 50.0549 1.93722C50.0549 2.06014 50.1899 2.18996 50.1899 2.3115C50.3222 2.56839 50.9959 2.69407 50.7244 1.93722C50.7244 1.80601 50.7244 1.67895 50.5908 1.55603C50.1899 0.795041 48.8481 1.42621 48.4458 1.04778C48.3122 0.919341 48.3122 0.795041 48.3122 0.540917C48.3122 -0.347137 49.3854 0.795041 49.9227 0.412474C50.7244 -0.0930126 50.8594 0.670741 51.5331 1.04778C51.664 1.17347 52.0677 1.30191 52.4699 1.17347C54.8863 1.04778 53.9468 1.55603 55.155 1.93722C55.2886 2.06014 55.4222 2.06014 55.5572 2.06014C56.629 2.3115 56.0931 1.55603 57.8372 3.07525C58.1087 3.20093 59.0455 3.07525 59.5827 3.32938C59.8514 3.7078 60.1186 3.96193 60.2537 3.96193C61.3268 3.83763 61.5955 4.34311 62.4014 4.7243C62.6701 4.85136 63.0723 5.10548 63.2032 5.10548C63.6082 5.10548 63.6082 5.35823 64.1455 5.61235C64.1455 5.61235 64.8151 5.86509 64.9515 5.99354C65.756 6.37196 65.756 6.88159 66.6928 7.26002C67.3665 7.51414 66.9614 7.38846 67.3665 7.6412C67.6337 7.89533 69.1092 8.65494 69.2442 8.90768C70.3174 9.66867 69.2442 9.03336 70.3174 9.92003C70.451 10.1742 70.8519 10.4283 71.1205 10.5567C71.5242 10.8081 71.7942 11.0636 72.0629 11.3177C72.4638 11.6975 72.8674 11.5705 72.9997 11.953C72.9997 12.0759 73.537 12.3315 73.6706 12.4585C74.3415 13.0911 75.1474 14.3603 75.8197 14.8672C77.4288 16.1336 77.4288 16.6405 78.4992 17.7813C79.1743 18.4166 80.1139 19.5588 80.6484 20.6996C80.9156 21.2065 81.3193 21.2065 81.1843 21.7106C81.1843 21.7106 81.5893 22.7271 81.858 23.1096C81.9902 23.4867 82.9298 24.5018 82.9298 25.3885C82.9298 25.771 83.332 26.0238 83.4671 26.2779C83.8693 27.0389 84.138 28.1797 84.4066 29.0677C84.4066 29.1934 84.5403 29.5718 84.6753 29.6989C84.6753 29.6989 85.4812 30.8411 85.0748 31.6007C84.9425 31.8548 85.0748 32.3617 85.2112 32.7429C85.3434 32.8713 85.4812 33.1254 85.4812 33.2484C85.8821 33.6309 85.7485 34.1378 85.7485 34.6447C85.8821 34.9015 85.8821 35.1501 85.8821 35.4043C85.8821 35.6598 85.6121 36.0382 85.8821 36.8006C86.0171 36.9276 86.0171 37.6872 86.1507 37.6872C86.2857 37.8129 86.2858 38.0684 86.2858 38.1955C86.418 38.5753 86.418 38.8267 86.418 39.0835V39.589V40.0973C86.2857 40.8569 86.0171 40.8569 86.418 41.3651C86.5544 41.6206 86.5544 42.6302 86.5544 43.6467C86.5544 44.1522 86.418 44.7889 86.418 45.166C86.3038 45.2764 86.2565 45.7212 86.2468 45.9283C86.1646 46.1811 86.1507 46.4987 86.1507 46.8164C86.0171 47.3219 86.0171 47.9572 86.0171 48.4654C85.8821 49.9846 85.7485 50.7443 85.2112 52.7731C85.0748 53.4084 84.6753 53.791 84.5403 54.4249C84.5403 55.0561 84.2716 55.4359 84.003 56.0712C83.7343 56.4524 83.7343 57.0836 83.332 57.3377C83.1984 57.4661 82.6583 58.4799 82.6583 58.861C82.6583 59.2408 82.2589 60.1289 81.858 60.8871C81.3193 61.5238 81.3193 61.5238 79.8425 63.9297C79.7102 64.1866 78.9057 64.8178 78.7707 65.0733C78.4992 65.7072 78.0984 65.8329 77.8311 66.087C77.5625 66.4682 77.0266 67.3549 76.4893 67.3549C75.952 67.3549 75.8197 67.8631 75.2811 68.6213C75.1474 68.6213 74.4779 69.6365 73.6706 70.0176C73.537 70.0176 72.0629 70.7759 71.9265 71.0314C71.7943 71.4112 71.1205 71.4112 70.5846 72.0451C70.5846 72.0451 68.4383 72.8061 68.3046 72.9332C67.6337 73.8212 66.2905 73.5657 66.1555 73.6955C65.4874 74.2024 63.8755 74.8336 63.341 74.5836C63.2032 74.5836 62.4014 74.5836 61.8641 74.7079C59.4477 75.0891 59.3141 75.2161 56.4982 74.7079C56.3604 74.7079 54.4841 74.3295 54.4841 74.3295H53.6795C53.4109 74.2024 53.1422 73.8212 53.0072 73.9469C52.6049 74.2024 50.9959 73.3144 49.789 72.8061C49.3854 72.552 49.3854 72.4277 49.249 72.4277C48.9817 72.3006 48.9817 72.3006 48.4458 72.1722C48.1758 72.0451 48.1758 71.9194 48.0435 71.9194C47.7749 71.7937 47.6385 71.5382 47.239 71.4112C47.104 71.4112 46.969 71.2841 46.8353 71.1584L46.0294 70.6502C45.0912 70.269 45.6271 70.1433 45.3599 69.8906C43.8816 69.3837 44.4203 70.3947 44.8212 70.7759C45.6271 71.9194 46.0294 72.4277 46.5667 72.552C46.7003 72.679 47.104 72.8061 47.104 72.9332C47.104 72.9332 47.5076 73.3144 47.6385 73.3144C48.1758 73.5657 48.8481 74.5836 49.1167 74.4524C49.654 74.3295 50.1899 74.9634 50.5908 75.3418C50.8594 75.2161 51.2645 75.3418 51.664 75.4689C51.934 75.5973 52.2027 75.8501 52.3363 75.9771H53.0072C53.4109 76.1028 53.9468 76.484 54.3504 76.6069C54.7499 76.7395 55.155 76.7395 55.6909 76.9895C55.9595 76.9895 56.8977 77.1152 57.9723 77.3707C58.7768 77.4964 59.4477 77.8775 59.715 77.4964C59.8514 77.2436 61.7291 77.4964 61.9978 77.3707C61.9978 77.3707 63.7405 77.2436 64.4128 77.1152C64.6814 76.9895 66.1555 76.7395 66.1555 76.7395C66.5592 76.6069 66.9614 76.3542 67.3665 76.3542C68.3046 76.2285 69.1092 75.4689 69.6451 75.5973C70.451 75.5973 70.3174 74.8336 71.1205 74.8336C71.7943 74.8336 71.9265 74.0753 72.5988 74.0753C72.9997 74.0753 73.2683 73.8212 73.4047 73.8212C73.8056 73.5657 74.2079 73.3144 74.6101 72.9332C75.0124 72.679 75.4161 72.3006 75.8197 71.9194L76.2206 71.5382C76.6215 71.1584 77.0266 70.7759 77.4288 70.269C77.9633 69.7621 79.0365 68.6213 79.5738 68.4943C79.8424 68.3714 80.6484 66.8508 81.052 66.5953C81.3193 66.4682 81.858 65.7072 82.1238 65.326C82.7962 64.0582 82.7962 64.3123 83.332 63.2972C83.7343 62.6605 84.6753 61.905 84.8089 60.7628C84.9425 60.383 85.7485 59.3665 85.7485 58.9853C85.7485 58.1001 87.0903 56.9593 87.2225 55.8157C87.2225 54.679 87.8962 53.6625 88.2971 53.03C88.4321 52.7731 88.5644 50.6213 88.9694 50.7443C89.3703 50.8713 89.2353 49.6035 89.2353 48.4654C89.2353 47.8287 89.3703 47.1976 89.7726 46.9421C90.1748 46.5636 90.0412 46.1838 90.0412 45.9283C89.9062 45.6756 89.9062 45.5485 89.9062 45.4201C90.0412 44.6605 90.0412 44.7889 90.1748 43.8995C90.1748 42.5059 90.5785 43.1385 90.8457 42.1248C90.9808 41.6206 90.7121 40.9853 90.4435 40.7312C90.1748 40.6042 90.1748 40.3514 90.1748 40.0973C90.3112 39.9716 90.4435 39.7147 90.5785 39.589C90.9808 39.2078 91.3844 39.0835 91.5181 39.589V39.9716C91.113 42.1248 92.7249 40.6041 92.9921 41.3651C93.6644 43.1385 95.2735 39.4634 95.2735 42.1248C95.2735 43.0114 93.6644 41.9963 94.0653 43.1385C94.2003 43.5183 95.4085 42.883 95.5422 42.883C95.8122 42.6302 95.5352 41.8803 96.0711 42.006C96.607 42.2615 96.6153 43.1385 97.0176 42.883C97.5549 42.7587 97.1526 41.3651 97.6885 41.6206C98.3608 41.8734 98.0922 42.883 98.0922 43.6467V44.0265C98.0922 44.532 98.2258 44.916 98.0922 45.166C98.0922 45.2958 98.0922 45.4201 97.9572 45.5485C97.8235 45.6756 97.8236 45.8013 97.8236 45.9283C97.8236 46.1838 98.0922 46.5636 98.2258 46.8164C98.3608 47.0705 98.3608 47.3219 98.0922 47.5774C97.8236 47.5774 97.8235 47.9572 97.9572 48.4654C97.9572 48.8438 98.0922 49.2237 98.0922 49.6035C98.2258 50.6213 97.2877 51.2539 97.5549 51.7608C97.9572 52.2662 96.884 53.1543 97.2877 53.791C97.4227 54.2979 97.1526 55.0561 96.884 55.9441C96.749 56.3253 96.6153 57.5932 96.3495 57.973C95.8122 58.3542 95.9444 59.2408 95.8122 59.3665C96.0781 59.8748 95.6758 60.7628 95.4085 61.0183C95.2735 61.7766 95.0077 61.6495 94.739 62.4133C94.0653 63.8054 94.0653 64.5623 93.2635 65.4517C93.2635 65.5801 92.4548 65.8329 92.5912 66.9751C92.7249 67.0994 91.9203 67.8631 91.9203 67.9888C91.5181 69.2567 91.113 69.7621 90.3112 71.0314C90.1748 71.1584 90.1748 71.2841 90.0412 71.4112C89.7726 71.6639 88.9694 72.4277 88.5644 73.0602C88.2971 73.5657 88.0271 73.9469 87.4912 74.7079C87.3589 74.9634 87.3589 75.0891 87.0903 75.3418C86.8203 75.9771 85.4812 77.2436 84.9425 78.0046C84.8089 78.2587 81.858 80.5403 81.3193 80.9201C80.9156 81.1742 80.2461 82.4421 79.1743 82.4421C78.4992 82.5664 77.8311 83.0774 77.2938 83.4545L76.6215 84.0912L73.6706 85.359C73.537 85.4847 73.4047 85.4847 73.2683 85.6118C72.8674 85.7374 72.5988 85.8659 72.3288 86.1172C69.7801 87.2608 71.2556 86.4984 67.4987 87.2608C67.2301 87.2608 66.6928 87.5135 66.4255 87.6406C65.8882 87.6406 64.6814 87.6406 64.2805 87.8947C64.1455 88.0218 63.7405 87.8947 63.2032 87.8947C62.4014 88.0218 60.9246 88.1502 60.2537 88.1502C59.3141 88.1502 58.5082 88.0218 57.7036 88.0218C57.0341 87.8947 57.5714 88.0218 56.8977 87.8947C56.629 87.7663 55.4222 87.7663 54.3504 87.5135C54.0804 87.3865 53.9468 87.2608 53.5431 87.2608C53.0072 87.2608 52.6049 86.8796 51.8004 86.7539C51.3953 86.7539 50.4586 86.3714 49.3854 86.1172C48.8481 85.8659 48.3122 85.7374 47.7749 85.4847C46.7003 84.9778 45.4921 84.2155 44.5526 83.4545C43.748 82.9476 43.2121 82.5664 42.8112 82.3137C41.603 81.4284 39.9926 79.7793 38.918 78.5115C37.9784 77.4964 37.0389 76.1028 36.3679 74.9634C36.3679 74.8336 36.2357 74.3295 36.2357 74.3295C35.8307 73.9469 35.1597 72.9332 34.8911 72.3006C34.7589 72.1722 33.9543 70.269 34.0879 70.1433C33.9543 70.0176 33.9543 69.1282 33.6857 69.1282C33.6857 69.1282 33.8207 68.4943 33.552 68.3714C33.2806 67.9888 33.552 67.609 33.2806 67.2278C33.0148 66.9751 33.4156 66.5953 33.2806 66.4682C33.1498 66.087 32.7461 66.087 33.1498 64.438C33.1498 64.438 32.8811 64.3123 33.0148 64.0582C33.0148 63.9297 32.8811 63.4242 32.8811 63.2972C32.8811 62.7917 32.6125 61.394 33.0148 60.6371C33.4156 59.7491 32.8811 59.495 33.6857 57.8459C33.9543 57.4661 36.3679 53.1543 40.9321 56.9593C41.4402 57.4399 41.5891 57.607 41.7617 57.7465C41.951 57.8984 42.1709 58.013 42.9435 58.4799C43.2121 58.7354 44.1503 58.861 44.4203 58.9853C44.6876 59.1124 45.0912 58.861 45.4921 58.9853C46.0294 59.1124 46.2967 58.861 46.5667 58.9853C47.104 59.2408 46.969 59.1124 47.6385 58.7354C48.1758 58.4799 48.7117 58.4799 48.7117 58.4799C48.7117 58.4799 49.249 58.4799 49.5176 58.3542L49.9227 58.1C50.4586 57.973 50.1899 57.5932 50.7244 57.3377C51.8004 56.7037 51.934 56.8294 52.7386 55.5643C53.4109 54.8047 53.1422 55.1818 53.4109 54.4249C53.5431 54.0423 53.6795 53.791 53.9468 53.4084C54.2154 52.9029 54.4841 53.03 54.4841 51.7608C54.4841 51.7608 55.155 50.3658 54.6177 50.6213C54.4841 50.6213 54.6177 49.3521 54.6177 49.2237C54.8863 49.0994 54.8863 48.8438 54.8863 48.4654C54.7499 48.3384 54.7499 48.0856 54.7499 47.9572C54.6177 47.9572 54.4841 47.5774 54.4841 47.4531C54.3504 47.1976 54.4841 47.0705 54.4841 46.8164C54.3504 46.3095 54.3504 46.3095 54.0804 46.054V45.2958C53.9468 44.916 53.8118 44.7889 53.8118 44.6605C53.1422 43.7724 53.4109 43.8995 53.2759 43.6467C52.4699 42.5059 52.7386 42.3775 52.3363 41.9963C52.3363 41.9963 52.0676 41.6206 51.934 41.6206C51.664 41.4908 51.3953 40.9853 51.2645 40.8569C51.1281 40.4785 50.9959 40.3514 50.7244 40.0973C50.5908 40.0973 50.4586 39.9716 50.3222 39.9716C50.0549 39.7147 50.0549 39.589 49.9227 39.589C49.9227 39.4634 50.1899 39.589 49.5176 39.0835C49.3854 38.9551 48.9817 38.7024 48.9817 38.7024L48.4458 38.1955C48.1758 37.94 48.0435 37.8129 48.0435 38.0684C47.9071 38.1955 47.239 37.5616 47.239 37.4317C47.239 37.3061 46.1644 37.1818 46.0294 37.0519C45.7608 37.0519 45.7608 36.8006 45.4921 36.8006C45.2249 36.5451 44.6876 36.6735 44.4203 36.418C44.1503 35.9111 43.4808 36.1666 43.2121 36.0382C42.4076 35.9111 41.7353 35.6598 41.603 35.6598C39.9926 35.4043 39.3189 35.6598 37.3075 35.6598C37.0389 35.6598 36.6394 35.7855 35.9671 35.9111L34.7589 36.2937C34.7589 36.2937 34.0879 36.418 33.9543 36.418C33.8207 36.418 33.4156 36.5451 33.1498 36.8006C32.7461 36.9276 32.4789 37.0519 32.2102 37.1818C31.6743 37.4317 31.8066 37.6872 31.002 37.8129C30.867 37.8129 30.5983 38.0684 30.3311 38.1955L29.7938 38.4496C29.3943 38.4496 28.9879 38.8267 28.7192 39.0835C28.5856 39.3377 28.452 39.4634 28.3197 39.4634C27.7838 39.8432 27.6488 39.7147 27.2438 40.0973C27.1115 40.4785 26.4406 40.6042 26.4406 40.7312C26.1692 40.7312 25.9033 40.9853 25.7697 41.2395C25.6347 41.7449 25.0988 41.7449 24.9638 42.1248C24.4265 43.5183 24.2929 43.0114 23.8906 43.1385C23.7556 43.2642 23.7556 43.3926 23.7556 43.6467C23.4869 44.0265 23.2197 44.2793 23.0846 44.532C22.951 44.7889 22.816 44.916 22.5474 45.166C22.4137 45.4201 22.1451 45.5485 22.0115 45.9283C21.8764 45.9283 21.8764 46.054 21.8764 46.3095C21.7428 46.3095 21.7428 46.6907 21.6092 46.8164C20.9397 47.0705 20.8046 47.7031 20.671 48.2113C20.266 50.3658 19.3292 50.7443 18.9269 52.6488C18.6569 53.6625 18.5233 54.679 17.9874 55.5643C17.8523 55.6914 18.121 56.0712 17.8523 56.3253C17.4501 57.0836 17.8523 57.973 17.5837 58.7354L17.3164 59.7491V60.6371C17.4501 63.043 16.9128 61.6495 17.3164 63.9297C17.3164 64.1866 17.4501 64.438 17.1814 65.5801C16.9128 65.8329 17.3164 66.7196 17.4501 66.7196C17.7187 66.8508 17.5837 67.9888 17.5837 68.3714C17.5837 68.3714 17.8523 69.0011 17.7187 69.1282C17.4501 69.508 17.8523 69.6365 18.121 70.6502C18.2699 71.3449 18.2518 71.4664 18.2769 71.5838C18.295 71.6819 18.3423 71.7717 18.5233 72.1722C18.6569 72.679 18.3896 72.9332 18.6569 73.8212C18.7905 74.0753 18.9269 74.3295 18.9269 74.5836C18.9269 75.2161 19.3292 74.7079 19.3292 75.3418C19.3292 75.4689 19.4628 75.9771 19.4628 76.1028C19.7315 76.484 19.4628 76.3542 19.5978 76.9895C19.8665 77.1152 19.9973 77.3707 20.1309 77.6234C20.1309 77.7505 20.266 78.5115 20.266 78.6385C20.536 78.8913 20.671 78.5115 20.8046 79.0197C20.8046 79.7793 21.0747 79.6523 21.6092 80.666C22.0115 81.1742 21.3405 80.9201 21.6092 81.5541C22.2815 83.5843 22.4137 81.8096 22.6824 82.5664C22.951 82.9476 23.0846 83.2031 23.0846 83.4545C23.6219 85.2292 22.951 85.7374 22.2815 84.5953C22.0115 83.7072 21.4742 85.4847 21.0747 85.1035C20.536 84.7237 19.8665 84.9778 19.9973 85.359L20.401 85.7374C20.536 85.8659 20.9397 85.6118 21.0747 86.1172C21.2055 86.7539 21.2055 87.3865 21.2055 87.8947C21.0747 88.53 20.8046 88.9071 20.266 88.7814C19.7315 88.53 19.8665 88.2732 19.9973 87.8947C20.1309 87.7663 20.266 87.5135 19.9973 87.2608C18.5233 85.9929 17.0478 87.7663 18.6569 87.5135C19.1956 87.5135 19.3292 87.6406 19.3292 87.8947C19.1956 88.1502 18.9269 88.53 18.6569 88.6543C18.3896 88.6543 18.256 88.7814 18.256 88.9071C18.121 89.4153 19.1956 90.302 19.1956 90.8075ZM94.7391 38.8268C95.0078 38.9552 95.14 38.8268 95.2736 38.9552C95.5423 38.9552 95.6759 39.0837 95.8123 39.0837C96.0782 39.208 96.0782 39.3378 96.0782 39.5892C96.2132 39.8433 96.0782 39.9717 95.9445 40.0974L95.8123 40.2217C95.0078 40.2217 96.0782 41.6208 96.2132 41.8735C97.0177 42.5061 97.4228 41.7451 97.1527 41.491C96.3496 40.6043 96.7491 40.4786 97.1527 40.0974C97.4228 39.9717 97.6886 39.8433 97.8237 39.5892V39.0837C97.6886 38.8268 97.555 38.9552 97.2878 39.0837C97.1527 39.3378 96.8841 39.4635 96.6155 39.0837C96.3496 38.8268 96.3496 38.5754 96.3496 38.3199C96.2132 38.3199 96.2132 38.1956 96.2132 38.1956C95.9445 38.0686 95.4086 38.0686 95.0078 38.1956C94.4705 38.3199 94.0654 38.7025 94.7391 38.8268ZM94.6039 39.5892H94.4702C94.3338 39.5892 94.3338 39.5892 94.3338 39.7149C94.2002 39.8433 94.0652 39.9717 94.0652 40.0974C94.0652 40.857 94.7389 41.2396 95.2734 40.4786C95.4084 40.3515 95.4084 40.2217 95.4084 40.0974C95.2734 39.8433 95.0075 39.5892 94.6039 39.5892ZM95.4088 36.8006C95.2737 36.5451 95.0079 36.418 94.7392 36.8006H94.6042C94.2006 37.1818 94.0655 36.9276 93.7969 36.8006C93.6647 36.5451 93.396 36.418 93.2638 36.5451C93.1288 36.5451 92.9923 36.6735 92.9923 36.8006C92.7251 37.0519 92.8601 37.5616 92.7251 37.6872C91.5183 38.4496 91.5183 36.8006 90.846 37.6872C90.5787 37.8129 90.4437 38.0684 90.4437 38.1955C90.3115 38.8267 91.9206 38.3198 92.1892 38.9551L92.3242 39.0835V39.589V40.0973C92.3242 40.2216 92.4551 40.3514 92.4551 40.6041C92.7251 40.8569 93.2638 40.7312 93.5283 40.4785C93.6647 40.4785 93.7969 40.3514 93.7969 40.0973C93.9333 39.9716 93.9333 39.7147 93.7969 39.589C93.7969 39.4634 93.6647 39.3377 93.5283 39.2078V39.0835C93.2638 38.8267 93.396 38.4496 93.6647 38.1955C93.9333 37.94 94.3342 37.8129 94.7392 37.8129C95.4088 37.6872 95.5424 37.0519 95.4088 36.8006ZM90.7121 35.4044C90.7121 36.1668 91.113 36.2939 91.3845 35.9113C91.6489 35.5301 91.9203 35.7856 91.7853 35.4044V35.2774C91.5181 34.265 90.7121 34.6448 90.7121 35.4044ZM96.2131 36.8006C96.3495 37.052 96.749 37.4318 97.0177 36.9277C97.1527 36.9277 97.1527 36.8006 97.1527 36.8006C97.2877 36.4181 97.0177 36.1667 96.3495 36.2938C96.2131 36.2938 96.2131 36.5451 96.2131 36.8006ZM93.6643 34.6448C93.5279 34.9017 93.3957 35.0273 93.933 35.1503C94.4702 35.2773 94.6039 35.0273 94.7389 34.6448C94.7389 34.5191 94.7389 34.5191 94.6039 34.392C94.6039 33.8852 94.0652 34.265 93.933 34.392C93.7965 34.5191 93.7965 34.6448 93.6643 34.6448ZM91.3845 32.743C91.2495 32.8714 91.3845 33.1256 91.7854 32.8714L92.1891 32.743C92.1891 32.6173 92.1891 32.6173 92.054 32.4903C91.9204 32.3618 91.649 32.3618 91.5181 32.4903C91.5181 32.4903 91.3845 32.6173 91.3845 32.743ZM44.9563 5.23133C45.6272 4.9772 45.8959 5.23133 46.0295 4.9772C46.1645 4.85152 46.1645 4.85152 46.1645 4.72446C46.1645 4.21621 45.6272 3.83779 45.6272 3.4566C45.6272 3.4566 45.6272 3.32954 45.7609 3.32954C45.7609 2.56855 44.9563 2.69423 44.6877 3.32954C44.6877 3.4566 44.6877 3.70796 44.8213 3.96209C45.0913 4.34328 44.6877 4.47034 44.2854 4.72446C43.8817 4.85152 43.6145 4.9772 43.4809 5.10565C43.2122 5.48407 42.6763 6.75331 43.7481 6.12076C44.1504 5.86526 44.4204 6.62487 44.8213 6.49919C45.4922 6.37213 44.2854 5.48407 44.9563 5.23133ZM42.9436 3.45646C43.2123 3.96194 44.1504 3.96194 44.0196 3.3294V3.20095C43.8818 2.69408 43.6145 2.5684 43.3459 2.5684C43.0773 2.69408 42.8114 2.94821 42.9436 3.3294V3.45646ZM42.1375 4.97714L41.8688 4.7244C41.8688 4.59596 41.8688 4.47028 42.1375 4.21615C42.5425 3.83773 42.4075 3.45654 42.2739 3.32948C42.1375 3.20104 41.8688 3.20104 41.7352 3.32948C41.7352 3.32948 41.7352 3.45654 41.603 3.45654C41.603 3.58222 40.3962 3.96203 41.0671 4.59596C41.0671 4.59596 41.2007 4.59596 41.3343 4.7244C41.3343 4.7244 41.4694 4.7244 41.4694 4.85146C41.7352 5.99364 42.5425 5.61245 42.1375 4.97714ZM39.9928 4.7244V4.59596C39.5891 3.96203 39.4569 4.59596 39.4569 4.59596C39.3191 4.59596 39.3191 4.59596 39.1868 4.7244C38.7846 5.10559 40.2614 5.23127 39.9928 4.7244ZM41.2008 2.06012V1.9372C41.2008 1.42619 40.3962 1.55601 40.3962 1.9372C40.3962 2.06012 40.5299 2.06012 40.5299 2.06012C40.7971 2.56837 41.2008 2.44269 41.2008 2.06012ZM43.4808 1.17334V1.04766C44.0194 0.288052 42.8112 0.288052 42.6762 0.670619C42.5426 0.794919 42.5426 0.919219 42.5426 1.04766C42.4076 1.30179 42.4076 1.55591 42.8112 1.67883C43.2121 1.67883 43.3457 1.42609 43.4808 1.17334ZM0.945961 38.1956V37.9401C0.945961 37.3062 0.408671 37.3062 0.275045 37.8131C0.140027 37.9401 0.140027 38.0686 0.140027 38.1956C-0.263636 39.4635 0.675924 38.8268 0.945961 38.1956ZM3.36106 43.6469C3.36106 43.5184 3.22604 43.3928 3.22604 43.2643C3.22604 42.2506 3.36106 42.8831 3.49607 42.2506C3.6297 41.491 2.01922 40.8571 2.4215 42.1249C2.69014 43.0116 2.01922 43.0116 1.75058 42.7588C1.07966 41.8735 0.140104 43.3928 0.275122 43.5184V43.6469C0.676001 44.2794 0.946038 43.7726 1.34692 43.6469C1.48194 43.5184 1.75058 43.5184 2.01922 43.6469C2.15424 43.6469 2.28648 43.7726 2.4215 44.0267C2.82377 44.4079 3.36106 45.1661 3.76472 44.9161C4.43285 44.4079 3.6297 44.4079 3.36106 43.6469ZM3.09083 45.9284V45.6756C2.9586 45.5486 2.9586 45.4201 2.82358 45.2958C2.82358 45.2958 2.68995 45.166 2.55493 45.166C2.28629 45.2958 2.15406 45.4201 2.15406 45.9284C2.01904 46.5637 3.22585 46.9421 3.09083 45.9284ZM4.56919 45.9284C4.43278 46.4353 5.2401 46.9421 5.776 46.1839C5.776 46.0541 5.90963 45.9284 5.90963 45.9284C6.04604 45.4202 5.50735 44.916 4.97146 45.2958C4.70281 45.5486 4.56919 45.6757 4.56919 45.9284ZM1.48157 46.8165L1.21431 46.5638C1.0793 46.3097 0.810651 46.3097 0.675633 46.6909V46.8165C0.810651 47.1977 1.21431 47.5775 1.48157 47.1977C1.61519 47.0707 1.61519 46.9422 1.48157 46.8165ZM4.03312 48.4655L3.76448 48.2114C3.2258 47.8288 3.09078 48.2114 3.36082 48.4655C3.36082 48.4655 3.36082 48.5884 3.49583 48.5884C3.62946 48.7155 3.62946 49.0994 3.8981 48.8439C4.03312 48.7155 4.16536 48.7155 4.03312 48.4655ZM25.9035 91.063C25.6348 92.0781 27.1117 91.5699 27.1117 90.9359C26.9781 90.5547 26.1693 90.6804 25.9035 90.9359V91.063ZM23.3533 92.7107V92.9662C23.3533 93.7244 24.0242 93.346 24.2928 92.9662C24.2928 92.8378 24.2928 92.8378 24.4264 92.7107C24.5601 92.458 24.8301 92.2038 24.5601 92.0782C24.1592 92.0782 23.6219 92.2038 23.3533 92.7107ZM21.4743 92.7106C21.3407 92.5835 21.0748 92.5835 20.9398 92.7106C20.6712 92.9661 20.4011 93.0931 20.8048 93.3459C21.2057 93.4729 21.4743 93.7243 21.743 93.3459C21.8766 93.0931 21.743 92.8376 21.4743 92.7106ZM20.1309 92.7105C20.401 92.4578 19.9973 91.6968 20.8046 91.6968C21.3405 91.6968 21.6092 92.3293 21.8764 91.8252C22.1451 91.5697 22.0114 91.1899 22.1451 90.9358C22.2815 90.6803 22.4137 90.4289 23.3533 90.8073C25.2324 91.5697 24.2928 89.5409 23.0846 89.7922C22.5473 89.7922 21.8764 89.9207 22.4137 89.2881C22.5473 89.1597 22.5473 89.0354 22.5473 88.9069C22.5473 88.5299 21.8764 88.273 21.3405 88.9069C21.3405 89.0354 21.2055 89.0354 21.2055 89.0354C20.536 90.0477 20.2659 88.6542 19.4628 89.1597C18.5232 89.9207 19.9973 89.9207 20.401 90.1734C21.0747 90.5546 21.0747 90.9358 20.8046 90.9358C20.671 91.0629 20.536 91.0629 20.2659 90.9358H19.7314C19.3292 91.317 19.5978 92.4578 19.8665 92.7105C19.8665 92.8376 19.9973 92.8376 19.9973 92.8376C20.1309 92.8376 20.1309 92.7105 20.1309 92.7105ZM24.293 87.8948C24.0243 88.1503 23.7557 88.3989 23.7557 88.6544V88.9071C23.8907 89.1599 24.1594 89.2883 24.8303 89.2883C25.5012 89.4154 25.6348 89.1599 25.6348 88.9071C25.6348 88.7815 25.6348 88.5301 25.5012 88.2732C25.5012 88.1503 25.3662 88.0218 25.3662 87.8948C25.0989 87.6407 24.6953 87.7663 24.293 87.8948ZM24.4266 87.3865C24.9639 87.0053 24.4266 86.3714 23.8907 86.1173C23.622 85.993 23.487 85.8659 23.2198 85.7375C23.0847 85.7375 22.8161 85.4847 22.5475 85.3591C22.2816 85.2292 22.0116 85.1036 21.6093 85.3591V85.4847C21.4743 85.6118 21.2056 85.7375 21.3406 86.1173C21.4743 86.1173 21.6093 86.2471 21.7429 86.3714C22.0116 86.6242 22.4138 86.754 22.2816 87.1338C22.0116 87.5136 22.0116 87.7663 22.0116 87.8948C22.1452 88.2732 22.4138 88.1503 22.5475 87.8948C22.6825 87.8948 22.6825 87.8948 22.6825 87.7663L23.1516 87.1987L23.2198 87.1338C23.622 86.4985 23.8907 87.8948 24.4266 87.3865ZM24.0241 94.7395C24.0241 94.3625 23.7554 94.6125 23.2195 94.995C22.5472 95.2478 24.56 96.1344 24.0241 94.7395ZM27.1114 93.8502C27.6486 93.7245 27.7837 93.98 27.7837 94.3625C27.7837 94.6125 27.5122 94.6125 27.3772 94.7396C26.9777 94.7396 26.4404 93.8502 27.1114 93.8502Z" fill="#E50021"/>
</g>
<path fill-rule="evenodd" clip-rule="evenodd" d="M462.296 73.7788V74.9971V76.624C462.17 75.9459 462.042 75.5385 461.912 75.1337C461.782 74.7263 461.652 74.3203 461.527 74.1862L458.173 67.4157H453.408L452.247 78.6517H455.727L456.24 72.696C456.37 72.2899 456.37 71.7511 456.37 71.2071C456.37 70.667 456.37 69.9902 456.24 69.3134C456.37 69.8522 456.499 70.2622 456.629 70.667C456.756 70.9363 456.886 71.3411 457.015 71.6131L460.495 78.6517H465.134L466.292 67.4157H462.941L462.296 73.7788Z" fill="#727171"/>
<path fill-rule="evenodd" clip-rule="evenodd" d="M474.788 70.3871C475.864 69.7389 477.078 69.3528 478.695 69.3528C479.504 69.3528 480.045 69.4819 480.719 69.611C481.393 69.7389 481.933 69.8668 482.607 70.1276L483.146 67.9323C482.337 67.6727 481.66 67.5436 480.853 67.5436C480.045 67.4157 479.233 67.4157 478.428 67.4157C475.728 67.4157 473.572 67.9323 471.953 68.8362C470.339 69.8668 469.39 71.2885 469.121 73.0989C468.986 74.9043 469.526 76.326 470.875 77.23C472.359 78.1339 474.381 78.6517 477.347 78.6517C478.156 78.6517 478.968 78.6517 479.91 78.5213C480.719 78.3909 481.528 78.263 482.337 78.1339L483.009 72.1924H477.078L476.809 74.2599H479.101L478.832 76.4564C478.695 76.4564 478.428 76.4564 478.156 76.5855H477.347C475.864 76.5855 474.788 76.1969 474.111 75.5512C473.302 74.9043 473.033 74.1307 473.167 72.9685C473.302 71.938 473.842 71.0315 474.788 70.3871Z" fill="#727171"/>
<path fill-rule="evenodd" clip-rule="evenodd" d="M485.955 78.6517H496.134L496.398 76.4873H490.054L490.317 73.9155H496.134L496.398 71.7511H490.58L490.714 69.4474H496.925L497.191 67.4157H487.143L485.955 78.6517Z" fill="#727171"/>
<path fill-rule="evenodd" clip-rule="evenodd" d="M325.843 78.6517H330.128L331.461 67.4157H327.171L325.843 78.6517Z" fill="#727171"/>
<path fill-rule="evenodd" clip-rule="evenodd" d="M334.27 69.5828H337.841L336.916 78.6517H340.745L341.672 69.5828H345.24L345.506 67.4157H334.534L334.27 69.5828Z" fill="#727171"/>
<path fill-rule="evenodd" clip-rule="evenodd" d="M355.01 72.1532L352.645 67.4157H348.315L352.645 74.4556L352.25 78.6517H356.06L356.454 74.4556L362.36 67.4157H358.29L355.01 72.1532Z" fill="#727171"/>
<path fill-rule="evenodd" clip-rule="evenodd" d="M373.596 78.6517H383.907L384.168 76.4873H377.693L377.96 73.9155H383.774L384.036 71.7511H378.222L378.486 69.4474H384.567L384.832 67.4157H374.787L373.596 78.6517Z" fill="#727171"/>
<path fill-rule="evenodd" clip-rule="evenodd" d="M397.064 67.4157L393.93 71.3411L391.695 67.4157H386.772L390.948 72.6947L384.832 78.6517H389.607L393.332 74.3203L395.871 78.6517H400.94L396.169 72.6947L401.685 67.4157H397.064Z" fill="#727171"/>
<path fill-rule="evenodd" clip-rule="evenodd" d="M413.96 67.4157C411.243 67.4157 409.095 67.931 407.377 68.8362C405.658 69.8668 404.802 71.2885 404.516 72.9685C404.372 74.7751 404.945 76.1969 406.376 77.1008C407.95 78.1339 410.097 78.6517 412.817 78.6517C413.673 78.6517 414.391 78.6517 415.106 78.52C415.965 78.52 416.681 78.3909 417.396 78.2618V75.8095C416.824 76.069 416.108 76.1969 415.393 76.326C414.819 76.326 414.103 76.4564 413.531 76.4564C411.954 76.4564 410.811 76.069 409.955 75.5512C409.095 74.9043 408.664 74.0003 408.806 72.9685C408.951 71.9367 409.522 71.0302 410.525 70.3871C411.529 69.8668 412.817 69.4819 414.391 69.4819C414.963 69.4819 415.679 69.6098 416.25 69.7389C416.824 69.7389 417.396 69.9959 417.967 70.2567L418.539 67.931C417.967 67.8019 417.251 67.6715 416.392 67.5436C415.679 67.4157 414.819 67.4157 413.96 67.4157Z" fill="#727171"/>
<path fill-rule="evenodd" clip-rule="evenodd" d="M427.994 71.7511H423.266L423.822 67.4157H419.792L418.539 78.6517H422.572L423.127 73.9155H427.717L427.299 78.6517H431.329L432.584 67.4157H428.55L427.994 71.7511Z" fill="#727171"/>
<path fill-rule="evenodd" clip-rule="evenodd" d="M257.504 74.0496C257.367 74.3203 257.229 74.5923 257.089 74.9971C256.956 75.4045 256.818 75.6752 256.818 76.2179C256.818 75.8092 256.818 75.4045 256.681 75.1324C256.681 74.7263 256.681 74.457 256.542 74.1862L254.617 67.4157H248.428L247.191 78.6517H250.764L251.592 71.2057V70.1255C251.592 69.7155 251.592 69.3134 251.731 68.772C251.731 69.1767 251.731 69.4474 251.864 69.8522C251.864 70.1255 252.003 70.3976 252.003 70.667L254.479 78.6517H258.053L262.318 70.5316C262.454 70.2622 262.592 69.9889 262.73 69.7155C262.867 69.4474 263.005 69.0414 263.142 68.772C263.142 69.1767 263.005 69.5828 262.867 69.9889C262.867 70.3976 262.867 70.667 262.73 71.0717L261.904 78.6517H265.616L266.854 67.4157H260.942L257.504 74.0496Z" fill="#727171"/>
<path fill-rule="evenodd" clip-rule="evenodd" d="M279.837 74.0496C279.701 74.3203 279.701 74.5923 279.564 74.9971C279.426 75.4045 279.287 75.6752 279.151 76.2179V75.1324C279.151 74.7263 279.151 74.457 279.014 74.1862L277.088 67.4157H270.9L269.663 78.6517H273.239L274.064 71.2057V70.1255V68.772C274.198 69.1767 274.198 69.4474 274.336 69.8522C274.336 70.1255 274.476 70.3976 274.476 70.667L276.949 78.6517H280.527L284.787 70.5316C284.925 70.2622 285.064 69.9889 285.2 69.7155C285.337 69.4474 285.476 69.0414 285.612 68.772C285.476 69.1767 285.476 69.5828 285.337 69.9889C285.337 70.3976 285.2 70.667 285.2 71.0717L284.374 78.6517H288.086L289.326 67.4157H283.414L279.837 74.0496Z" fill="#727171"/>
<path fill-rule="evenodd" clip-rule="evenodd" d="M195.443 73.7788C195.443 74.1862 195.313 74.5923 195.443 74.9971V76.624C195.313 75.9459 195.184 75.5385 195.057 75.1337C194.928 74.7263 194.798 74.3203 194.67 74.1862L191.319 67.4157H186.554L185.393 78.6517H188.872L189.388 72.696C189.516 72.2899 189.516 71.7511 189.516 71.2071C189.516 70.667 189.388 69.9902 189.388 69.3134C189.516 69.8522 189.646 70.2622 189.775 70.667C189.775 70.9363 190.032 71.3411 190.16 71.6131L193.638 78.6517H198.278L199.438 67.4157H196.087L195.443 73.7788Z" fill="#727171"/>
<path fill-rule="evenodd" clip-rule="evenodd" d="M225.628 67.4157C222.915 67.4157 220.777 67.931 219.065 68.8362C217.495 69.8668 216.497 71.2885 216.354 72.9685C216.069 74.7751 216.782 76.1969 218.21 77.1008C219.635 78.1339 221.774 78.6517 224.629 78.6517C225.344 78.6517 226.057 78.6517 226.912 78.52C227.625 78.52 228.34 78.3909 229.196 78.2618V75.8095C228.482 76.069 227.768 76.1969 227.198 76.326C226.484 76.326 225.913 76.4564 225.344 76.4564C223.773 76.4564 222.49 76.069 221.633 75.5512C220.777 74.9043 220.349 74.0003 220.492 72.9685C220.633 71.9367 221.205 71.0302 222.204 70.3871C223.202 69.8668 224.488 69.4819 226.057 69.4819C226.769 69.4819 227.34 69.6098 227.91 69.7389C228.482 69.7389 229.196 69.9959 229.622 70.2567L230.337 67.931C229.622 67.8019 228.91 67.6715 228.196 67.5436C227.34 67.4157 226.484 67.4157 225.628 67.4157Z" fill="#727171"/>
<path fill-rule="evenodd" clip-rule="evenodd" d="M154.569 67.4157H150.225L148.876 78.6517H159.814L160.112 76.4873H153.521L154.569 67.4157Z" fill="#727171"/>
<path fill-rule="evenodd" clip-rule="evenodd" d="M162.921 78.6517H167.209L168.539 67.4157H164.252L162.921 78.6517Z" fill="#727171"/>
<path fill-rule="evenodd" clip-rule="evenodd" d="M320.564 75.5385C320.17 75.8093 319.517 76.0813 318.861 76.218C318.471 76.3507 317.948 76.3507 317.425 76.3507H315.724L316.508 69.5828H317.948H318.861C319.78 69.7155 320.564 69.9889 321.087 70.3976C321.742 71.0718 322.002 71.8866 322.002 72.9681C321.871 74.0496 321.346 74.8618 320.564 75.5385ZM323.179 68.2292C322.656 67.9585 322.002 67.6878 321.087 67.5511C320.431 67.5511 319.78 67.4157 318.861 67.4157H317.818H312.845L311.798 78.6517H316.249C317.293 78.6517 318.079 78.6517 318.861 78.5163H319.78C320.696 78.3823 321.346 78.2456 322.002 77.9762C323.179 77.4348 324.096 76.758 324.749 75.9459C325.403 75.1324 325.794 74.1849 325.794 72.968C325.925 71.8865 325.794 70.9363 325.403 70.1255C324.88 69.3134 324.224 68.772 323.179 68.2292Z" fill="#727171"/>
<path fill-rule="evenodd" clip-rule="evenodd" d="M302.407 72.9686C302.278 74.1309 301.894 74.9044 301.245 75.5513C300.6 76.0691 299.954 76.4565 299.182 76.4565C299.049 76.4565 298.921 76.5844 298.792 76.5844C297.757 76.5844 297.11 76.197 296.465 75.5513C295.948 74.9044 295.82 74.0005 295.948 72.9686C296.076 71.9368 296.465 71.0316 297.11 70.3872C297.628 69.8669 298.403 69.6112 299.182 69.482H299.567C300.473 69.482 301.245 69.739 301.764 70.3872C302.278 71.0316 302.539 71.9368 302.407 72.9686ZM299.828 67.4157H299.182C297.243 67.5436 295.691 67.931 294.399 68.8362C293.106 69.8668 292.33 71.2885 292.201 72.9685C291.941 74.7764 292.458 76.1969 293.493 77.1021C294.657 78.1339 296.337 78.6517 298.534 78.6517H299.182C301.118 78.5213 302.668 78.0035 303.829 77.1021C305.122 76.1969 305.898 74.7764 306.156 72.9685C306.286 71.2885 305.898 69.8668 304.734 68.8362C303.571 67.931 301.894 67.4157 299.828 67.4157Z" fill="#727171"/>
<path fill-rule="evenodd" clip-rule="evenodd" d="M240.611 72.9686C240.482 74.1309 240.094 74.9044 239.448 75.5513C238.803 76.0691 238.156 76.4565 237.38 76.4565C237.251 76.4565 237.123 76.5844 236.994 76.5844C235.96 76.5844 235.313 76.197 234.796 75.5513C234.28 74.9044 234.019 74.0005 234.15 72.9686C234.28 71.9368 234.667 71.0316 235.313 70.3872C235.83 69.8669 236.605 69.6112 237.38 69.482H237.768C238.672 69.482 239.448 69.739 239.963 70.3872C240.482 71.0316 240.74 71.9368 240.611 72.9686ZM238.026 67.4157H237.38C235.443 67.5436 233.891 67.931 232.728 68.8362C231.307 69.8668 230.532 71.2885 230.402 72.9685C230.144 74.7764 230.661 76.1969 231.823 77.1021C232.858 78.1339 234.539 78.6517 236.734 78.6517H237.38C239.317 78.5213 240.869 78.0035 242.033 77.1021C243.455 76.1969 244.098 74.7764 244.358 72.9685C244.489 71.2885 244.098 69.8668 242.934 68.8362C241.774 67.931 240.223 67.4157 238.026 67.4157Z" fill="#727171"/>
<path fill-rule="evenodd" clip-rule="evenodd" d="M126.79 75.5385C126.402 75.8093 125.753 76.0813 125.107 76.218C124.717 76.3507 124.198 76.3507 123.68 76.3507H121.996L122.773 69.5828H124.198H125.107C126.012 69.7155 126.79 69.9889 127.309 70.3976C127.956 71.0718 128.215 71.8866 128.215 72.9681C128.085 74.0496 127.567 74.8618 126.79 75.5385ZM129.381 68.2292C128.863 67.9585 128.215 67.6878 127.309 67.5511C126.66 67.5511 126.012 67.4157 125.107 67.4157H124.069H119.144L117.978 78.6517H122.514C123.552 78.6517 124.327 78.6517 125.107 78.5163H126.012C126.921 78.3823 127.567 78.2456 128.215 77.9762C129.381 77.4348 130.288 76.758 130.937 75.9459C131.584 75.1324 131.974 74.1849 131.974 72.968C132.103 71.8865 131.974 70.9363 131.584 70.1255C131.066 69.3134 130.418 68.772 129.381 68.2292Z" fill="#727171"/>
<path fill-rule="evenodd" clip-rule="evenodd" d="M140.81 74.1861H138.792L140.81 70.8035L141.386 69.852L142.827 74.1861H140.81ZM140.81 67.4157H139.226L132.022 78.6517H136.056L137.496 76.2179H140.81H143.546L144.411 78.6517H148.876L144.267 67.4157H140.81Z" fill="#727171"/>
<path fill-rule="evenodd" clip-rule="evenodd" d="M177.396 74.1861H175.397L177.396 70.8035L177.966 69.852L179.394 74.1861H177.396ZM177.396 67.4157H175.824L168.539 78.6517H172.683L174.11 76.2179H177.396H180.108L180.967 78.6517H185.393L180.823 67.4157H177.396Z" fill="#727171"/>
<path fill-rule="evenodd" clip-rule="evenodd" d="M441.44 74.1861H439.441L441.44 70.8035L442.01 69.852L443.44 74.1861H441.44ZM441.44 67.4157H439.869L432.584 78.6517H436.722L438.151 76.2179H441.44H444.153L445.011 78.6517H449.438L444.867 67.4157H441.44Z" fill="#727171"/>
<path fill-rule="evenodd" clip-rule="evenodd" d="M388.891 58.9888L389.177 55.472C380.126 53.2726 375.739 50.3406 372.629 47.2663C374.605 45.5065 378.142 40.8161 380.548 35.3944C383.093 37.5924 386.063 38.032 390.168 38.4716L390.45 34.8069C384.509 33.1965 383.377 28.2144 382.81 25.4318L374.325 25.2809C375.032 28.654 377.155 32.3173 378.142 33.1965H373.335C372.061 35.9805 370.365 38.9112 367.678 41.8418C365.697 39.0563 364.423 35.8355 363.436 33.1965H358.91C360.323 31.5846 362.16 29.0922 363.153 25.2809H355.091C354.384 26.7477 352.968 32.3173 346.321 35.6875C345.05 36.5667 345.331 38.7618 346.746 38.6181C349.007 38.3265 352.828 38.1799 356.222 35.9805C358.202 43.4551 361.313 45.9461 362.16 47.5594C357.918 51.3663 354.524 54.0067 344.34 55.7665C342.22 56.3498 342.079 58.9888 344.34 58.8408C355.229 58.5478 361.456 55.6186 366.97 51.5143C372.911 56.0553 377.013 57.8151 388.468 58.9888H388.891Z" fill="#727171"/>
<path fill-rule="evenodd" clip-rule="evenodd" d="M331.453 23.2174C331.88 19.2017 313.853 17.9067 302.357 22.9584C300.653 23.7366 302.78 25.9368 304.769 25.1598C314.278 20.8852 323.364 21.9237 323.22 22.8276L322.225 30.7282H299.801C299.924 29.8357 300.674 22.2436 300.792 21.1365C300.757 19.594 293.696 19.853 293.415 21.4031C293.13 24.1238 292.42 30.7282 292.135 33.7079H330.318L331.453 23.2174Z" fill="#727171"/>
<path fill-rule="evenodd" clip-rule="evenodd" d="M300.56 19.678C300.56 19.6783 300.561 19.6786 300.561 19.6797C300.565 19.632 300.564 19.6379 300.56 19.678Z" fill="#727171"/>
<path fill-rule="evenodd" clip-rule="evenodd" d="M321.231 38.1413C320.261 38.4231 321.369 40.9584 322.756 40.3961C324.838 39.4068 326.084 39.2673 327.611 39.5505L326.364 52.9399C324.008 53.0794 321.09 52.9399 318.735 52.9399C318.874 50.6851 319.843 40.6765 320.119 37.5762C320.261 36.4488 313.461 35.7441 313.186 37.9976C312.767 42.5086 311.935 51.8111 311.798 56.1798H332.747L334.27 38.7036C334.27 36.5897 325.533 35.7441 321.231 38.1413Z" fill="#727171"/>
<path fill-rule="evenodd" clip-rule="evenodd" d="M295.971 37.8826C294.876 38.2939 295.971 40.7714 297.477 40.0849C299.945 38.8455 301.313 39.2595 302.135 39.3958L300.767 53.0158C298.439 53.1547 295.831 53.0158 293.505 53.0158L294.738 37.7436C295.148 36.5056 288.709 36.2305 288.158 37.8826C287.747 42.1457 286.928 51.9153 286.517 56.1798L307.617 56.0422C308.165 49.5768 308.441 45.0372 308.989 38.5704C308.989 36.9196 301.59 35.2702 295.971 37.8826Z" fill="#727171"/>
<path fill-rule="evenodd" clip-rule="evenodd" d="M346.868 25.1346L390.31 25.2809L390.449 21.98H371.729C371.87 18.6778 364.328 19.1109 363.771 21.98H347.289C344.915 22.1221 345.053 24.994 346.868 25.1346Z" fill="#727171"/>
<path fill-rule="evenodd" clip-rule="evenodd" d="M181.34 25.2809H187.814L188.202 22.4719H181.729C179.4 22.4719 179.01 25.0738 181.34 25.2809Z" fill="#727171"/>
<path fill-rule="evenodd" clip-rule="evenodd" d="M215.312 33.7079C213.071 33.7079 212.823 36.2749 214.937 36.5169H217.428H221.66L221.91 33.7079H217.428H215.312Z" fill="#727171"/>
<path fill-rule="evenodd" clip-rule="evenodd" d="M189.923 46.6835L201.131 46.82L200.45 53.3708H204.002H208.103C208.103 51.8685 208.514 48.048 208.514 46.82H215.485L219.72 46.9538C219.858 45.1813 219.858 45.4555 219.995 43.6817H215.485H208.786C208.924 42.8643 209.333 38.6318 209.333 37.8104L209.606 33.9926L209.88 30.5801C210.016 29.4912 206.189 28.9427 204.002 29.6249C203.182 29.7627 202.636 30.1707 202.499 30.5801L202.089 35.0828H197.579L204.002 26.7609C208.103 26.6218 211.794 26.6218 215.485 26.6218H221.635L221.91 23.4848H215.485H206.053L207.693 21.299C208.377 20.4816 206.326 19.6629 204.002 19.6629C202.362 19.6629 200.45 19.9358 199.492 20.7545L197.441 23.4848H191.153C188.83 23.6212 188.556 26.4866 190.88 26.4866L195.254 26.6218L189.923 34.1277C188.42 35.9015 189.377 38.2238 191.427 38.2238H201.816C201.816 38.7696 201.406 42.9968 201.406 43.6817H190.198C187.873 43.6817 187.326 46.5484 189.923 46.6835Z" fill="#727171"/>
<path fill-rule="evenodd" clip-rule="evenodd" d="M221.627 56.1798C221.769 54.1938 221.769 55.045 221.91 53.059H217.385H205.506H188.534C185.988 52.9171 185.705 52.2093 185.988 50.2219L187.687 30.3596C188.109 28.6573 187.12 28.2331 184.857 28.0899H178.776C176.655 28.2331 176.088 31.2107 178.776 31.3539H180.189L178.35 51.7837C178.069 54.7626 179.766 56.1798 182.737 56.1798H205.506H217.385H221.627Z" fill="#727171"/>
<path fill-rule="evenodd" clip-rule="evenodd" d="M150.947 28.0899H156.269H165.435L165.73 25.3922C162.033 25.3922 159.374 25.2809 156.269 25.2809C154.79 25.2809 153.163 25.2809 151.243 25.3922C148.139 25.3922 148.139 28.0899 150.947 28.0899Z" fill="#727171"/>
<path fill-rule="evenodd" clip-rule="evenodd" d="M120.071 55.6284C129.981 53.0121 138.774 46.393 142.264 37.1562C144.079 44.4645 149.103 49.7025 155.804 53.2837C157.896 54.3892 160.129 55.3514 162.504 56.1798C162.642 54.1135 162.782 55.3514 162.921 53.2837C159.989 51.3566 157.757 49.5633 155.804 47.4944C146.729 38.1197 147.987 27.9194 148.267 18.4069C148.267 16.2014 140.45 16.4757 140.17 18.4069C139.891 20.7502 139.613 21.9921 139.473 24.3341H123.284C120.629 24.3341 119.931 27.9194 123.002 27.9194L138.634 28.0559C136.961 35.3642 131.238 46.6686 119.375 53.0121C118.537 53.4216 118.118 54.1135 117.978 54.9379C118.118 55.6284 118.815 56.1798 120.071 55.6284Z" fill="#727171"/>
<path fill-rule="evenodd" clip-rule="evenodd" d="M235.064 22.4719H239.614H244.438H260.851H277.955L278.09 19.3227H260.851H259.334C259.884 16.1749 252.027 15.8902 250.923 19.3227H244.438L239.614 19.4671H235.064C232.718 19.4671 232.304 22.4719 235.064 22.4719Z" fill="#727171"/>
<path fill-rule="evenodd" clip-rule="evenodd" d="M244.512 30.8989H247.191V28.5856C246.252 27.7611 246.118 26.2707 245.719 25.2809H244.512H239.835H238.764C238.896 27.0969 239.299 28.4204 239.835 29.4118C240.501 30.4048 241.439 30.7337 242.776 30.7337L244.512 30.8989Z" fill="#727171"/>
<path fill-rule="evenodd" clip-rule="evenodd" d="M268.222 56.1798H276.07L278.071 33.9568C278.214 32.6005 277.64 30.7048 273.502 30.026L269.936 29.6195C270.223 29.4827 270.648 29.0788 271.077 28.1317C271.506 27.3147 271.935 25.8242 271.792 25.2809H263.656C263.229 27.4515 261.944 29.0788 261.516 29.0788C257.664 28.8065 251.524 29.0788 244.531 30.839C243.962 30.9758 243.25 31.11 242.679 31.3797C240.253 32.1926 242.251 33.9568 244.531 33.6831C244.678 33.6831 244.821 33.6831 244.963 33.549C252.385 31.652 257.232 31.3797 261.516 31.652C263.656 31.7875 265.652 31.9203 267.654 32.1926C270.364 32.4663 270.364 33.8199 270.223 34.6329L268.222 56.1798Z" fill="#727171"/>
<path fill-rule="evenodd" clip-rule="evenodd" d="M240.58 44.0122L241.554 31.9747C241.676 31.5548 241.189 31.2749 240.58 31.135C238.874 30.5765 235.461 30.995 235.096 32.5373L233.146 58.9888C235.218 58.8488 237.289 58.9888 239.362 58.8488L240.58 44.0122Z" fill="#727171"/>
<path fill-rule="evenodd" clip-rule="evenodd" d="M244.344 39.7265C243.832 39.9558 243.322 40.1839 242.679 40.3019C241.141 40.6424 241.269 41.9045 242.679 42.1348C243.192 42.0191 243.832 42.0191 244.344 42.0191C247.806 42.0191 251.141 41.9045 252.809 36.5169H246.912C246.27 37.7778 245.883 38.9252 244.344 39.7265Z" fill="#727171"/>
<path fill-rule="evenodd" clip-rule="evenodd" d="M261.226 33.7079H256.401L255.866 37.3416C255.33 40.1512 255.33 42.1348 259.353 42.1348H261.226H266.453L266.854 38.8298C263.105 38.5011 262.297 38.5011 262.297 36.8461L262.567 33.7079H261.226Z" fill="#727171"/>
<path fill-rule="evenodd" clip-rule="evenodd" d="M252.686 46.1855C254.991 45.2904 256.724 44.9905 259.903 45.5887C259.753 46.6301 259.034 51.7041 258.89 52.8976L248.499 53.0483L249.366 43.4986C249.654 42.3051 246.766 41.8575 244.746 42.3051C243.739 42.6035 242.873 43.0467 242.873 43.797L241.573 56.1798H244.746H261.918H265.524L266.684 46.9285C266.825 44.9905 267.548 43.797 264.374 42.7512C263.651 42.6035 262.785 42.4528 261.918 42.3051C258.314 41.8575 253.404 42.4528 250.664 43.797C249.51 44.6951 250.953 46.9285 252.686 46.1855Z" fill="#727171"/>
<path fill-rule="evenodd" clip-rule="evenodd" d="M409.545 29.852H414.65H431.891H432.582L432.306 33.3878H414.65H409.134L409.545 29.852ZM406.79 36.3822L414.65 36.5169H440.031L440.995 24.0023C441.133 22.0964 440.446 21.8229 437.547 21.0067C431.481 19.3728 421.961 19.6476 414.65 21.5509C413.822 21.8229 412.996 21.9603 412.306 22.2324C409.823 23.1847 412.306 25.2227 413.96 24.8185C414.239 24.6812 414.375 24.6812 414.65 24.5451C421.548 22.3698 433.27 22.0964 433.133 24.0023L432.859 26.9952H414.65H409.685L410.238 21.5509C410.238 18.9674 403.758 19.1008 403.065 21.5509L401.685 36.3822C402.79 36.5169 405.686 36.3822 406.79 36.3822Z" fill="#727171"/>
<path fill-rule="evenodd" clip-rule="evenodd" d="M403.164 46.1999C406.329 46.0611 408.255 45.7862 410.457 43.4508H413.07H417.059H426.966H433.985C435.223 43.4508 435.631 44.1368 435.36 45.5127L434.122 54.3125C434.122 54.8623 433.985 55.4108 433.019 55.4108L430.269 55.6857C428.341 55.8245 427.929 59.122 430.269 58.9846H437.56C440.588 58.9846 441.962 56.5091 442.375 54.3125L443.613 45.2378C443.888 43.7271 444.578 40.8379 440.034 40.7031H426.828H417.059H412.244L412.931 39.3259L406.329 39.4647C405.364 41.5265 403.715 43.0371 402.752 43.4508C400.962 44.2742 401.65 46.1999 403.164 46.1999Z" fill="#727171"/>
<path fill-rule="evenodd" clip-rule="evenodd" d="M400.083 56.1728C406.425 55.743 409.525 54.4551 413.752 49.5843C414.455 48.7234 415.161 47.8638 415.722 47.0042C416.567 45.7177 417.414 44.2823 418.539 42.1348H415.722H409.945C408.253 45.5731 405.014 51.4467 400.223 53.4523C398.674 54.1672 398.25 56.3175 400.083 56.1728Z" fill="#727171"/>
<path fill-rule="evenodd" clip-rule="evenodd" d="M423.425 44.9438C422.388 47.8783 419.728 53.0889 415.886 55.6255C415.298 56.0234 414.705 56.4265 413.966 56.6962C412.487 57.3584 412.487 59.2288 414.557 58.9631C414.999 58.9631 415.444 58.9631 415.886 58.8283C422.685 57.7603 425.937 55.492 428.3 52.1531C429.779 50.1518 431.256 47.7474 432.584 44.9438H423.425Z" fill="#727171"/>
<path fill-rule="evenodd" clip-rule="evenodd" d="M453.614 58.959C460.251 57.0797 463.431 52.603 464.26 45.6635L475.6 45.5232H476.569L477.537 33.532C477.81 31.3666 477.398 31.0777 475.6 30.7874C475.326 30.7874 475.048 30.6429 474.77 30.6429H469.513C467.026 30.9319 466.612 33.9668 468.823 34.1099H471.59L470.901 42.2022C468.548 42.3452 467.302 42.2022 464.952 42.2022L466.473 24.5772C467.855 24.43 468.963 24.8662 475.6 23.7091C476.429 23.5618 477.398 23.4202 478.368 23.2757C480.992 22.5535 480.854 19.9518 478.78 19.6629C477.672 19.9518 476.569 20.1005 475.6 20.2422C470.901 21.1075 466.889 21.2534 462.879 21.1075C460.525 21.1075 459.561 22.4076 459.284 24.43C458.728 31.0777 458.455 52.3141 453.476 56.0713C451.815 57.3714 451.815 59.2479 453.614 58.959Z" fill="#727171"/>
<mask id="mask1_10_35501" style="mask-type:luminance" maskUnits="userSpaceOnUse" x="469" y="19" width="32" height="40">
<path fill-rule="evenodd" clip-rule="evenodd" d="M469.101 19.6629H500V58.9888H469.101V19.6629Z" fill="white"/>
</mask>
<g mask="url(#mask1_10_35501)">
<path fill-rule="evenodd" clip-rule="evenodd" d="M474.1 53.4927C473.233 54.489 472.362 55.3403 471.206 55.9089C468.165 57.3302 468.6 59.4621 471.352 58.895C472.362 58.6107 473.233 58.3251 474.1 58.0422C481.188 55.1996 484.949 50.5065 485.676 40.8431L487.123 24.2111C487.992 24.2111 489.728 24.356 493.489 24.0718C495.225 23.9254 497.25 23.6398 499.71 23.0741C499.855 21.0801 499.855 21.6528 500.001 19.6629C498.263 20.0879 495.95 20.3736 493.489 20.6564C490.74 20.9421 487.555 21.0801 484.374 21.0801C481.48 21.2264 480.033 22.3648 479.598 24.7796L478.298 40.6996C478.151 43.1186 477.138 49.5116 474.1 53.4927Z" fill="#727171"/>
</g>
<path fill-rule="evenodd" clip-rule="evenodd" d="M493.998 30.9004C492.978 30.9004 490.68 30.758 490.553 33.2732L488.764 56.1798H494.383H495.15L496.807 34.2508H499.745L500 30.9004H494.383H493.998Z" fill="#727171"/>
</g>
</svg>
