<svg width="25" height="24" viewBox="0 0 25 24" fill="none" xmlns="http://www.w3.org/2000/svg">
<g id="&#232;&#174;&#190;&#231;&#189;&#174;/Variant3">
<g id="Group 192">
<circle id="Ellipse 4" cx="12.75" cy="11.989" r="3.75" stroke="#666666" stroke-width="1.5"/>
<g id="Union">
<mask id="path-3-inside-1_928_14598" fill="white">
<path fill-rule="evenodd" clip-rule="evenodd" d="M19.3066 18.7761C19.7849 18.4999 19.9488 17.8883 19.6726 17.41L19.1736 16.5457C19.399 16.2286 19.6014 15.894 19.7786 15.5445H20.7498C21.302 15.5445 21.7498 15.0968 21.7498 14.5445V9.79447C21.7498 9.24219 21.302 8.79447 20.7498 8.79447H19.9501C19.8052 8.4683 19.6387 8.15381 19.4526 7.85279L19.8664 7.19507C20.1604 6.7276 20.0199 6.11023 19.5524 5.81614L15.5319 3.28676C15.0644 2.99267 14.447 3.13322 14.153 3.60069L13.7874 4.18176C13.4479 4.13709 13.1017 4.11404 12.75 4.11404C12.5024 4.11404 12.2575 4.12547 12.0157 4.14783L11.6726 3.55363C11.3965 3.07534 10.7849 2.91147 10.3066 3.18761L6.19299 5.56261C5.7147 5.83875 5.55082 6.45034 5.82696 6.92864L6.21271 7.59677C5.9587 7.9741 5.73649 8.37461 5.54992 8.79447H4.74976C4.19747 8.79447 3.74976 9.24219 3.74976 9.79447V14.5445C3.74976 15.0968 4.19747 15.5445 4.74976 15.5445H5.72142C5.85415 15.8064 6.00109 16.0598 6.16122 16.3038L5.63294 17.1436C5.33885 17.611 5.4794 18.2284 5.94687 18.5225L9.96741 21.0519C10.4349 21.346 11.0522 21.2054 11.3463 20.7379L11.9231 19.8211C12.1949 19.8495 12.4707 19.864 12.75 19.864C12.9298 19.864 13.1081 19.858 13.2849 19.8462L13.827 20.785C14.1031 21.2633 14.7147 21.4272 15.193 21.1511L19.3066 18.7761Z"/>
</mask>
<path d="M19.6726 17.41L20.9717 16.66L19.6726 17.41ZM19.3066 18.7761L20.0566 20.0751L19.3066 18.7761ZM19.1736 16.5457L17.9509 15.6768L17.3931 16.4617L17.8746 17.2957L19.1736 16.5457ZM19.7786 15.5445V14.0445H18.8572L18.4407 14.8663L19.7786 15.5445ZM19.9501 8.79447L18.5793 9.40357L18.9752 10.2945H19.9501V8.79447ZM19.4526 7.85279L18.1829 7.05404L17.6847 7.84599L18.1768 8.64175L19.4526 7.85279ZM19.8664 7.19507L21.136 7.99382V7.99382L19.8664 7.19507ZM19.5524 5.81614L18.7537 7.08579L18.7537 7.08579L19.5524 5.81614ZM15.5319 3.28676L14.7331 4.5564L14.7331 4.5564L15.5319 3.28676ZM14.153 3.60069L12.8833 2.80194L12.8833 2.80194L14.153 3.60069ZM13.7874 4.18176L13.5917 5.66894L14.545 5.79439L15.057 4.98051L13.7874 4.18176ZM12.0157 4.14783L10.7167 4.89783L11.1971 5.72992L12.1538 5.64145L12.0157 4.14783ZM11.6726 3.55363L10.3736 4.30363L10.3736 4.30363L11.6726 3.55363ZM10.3066 3.18761L11.0566 4.48665H11.0566L10.3066 3.18761ZM6.19299 5.56261L5.44299 4.26357L6.19299 5.56261ZM5.82696 6.92864L7.126 6.17864L7.126 6.17864L5.82696 6.92864ZM6.21271 7.59677L7.45702 8.43445L7.97993 7.65769L7.51175 6.84677L6.21271 7.59677ZM5.54992 8.79447V10.2945H6.52482L6.92069 9.40357L5.54992 8.79447ZM5.72142 15.5445L7.05937 14.8663L6.64281 14.0445H5.72142V15.5445ZM6.16122 16.3038L7.43086 17.1026L7.94412 16.2867L7.41532 15.4809L6.16122 16.3038ZM5.63294 17.1436L4.36329 16.3448H4.36329L5.63294 17.1436ZM5.94687 18.5225L6.74562 17.2528L5.94687 18.5225ZM9.96741 21.0519L9.16865 22.3215H9.16865L9.96741 21.0519ZM11.3463 20.7379L10.0767 19.9392L11.3463 20.7379ZM11.9231 19.8211L12.0788 18.3292L11.1505 18.2324L10.6535 19.0224L11.9231 19.8211ZM13.2849 19.8462L14.5839 19.0962L14.1168 18.287L13.1845 18.3495L13.2849 19.8462ZM13.827 20.785L15.126 20.035L13.827 20.785ZM15.193 21.1511L15.943 22.4501L15.193 21.1511ZM18.3736 18.16C18.2355 17.9209 18.3175 17.6151 18.5566 17.477L20.0566 20.0751C21.2523 19.3847 21.662 17.8558 20.9717 16.66L18.3736 18.16ZM17.8746 17.2957L18.3736 18.16L20.9717 16.66L20.4726 15.7957L17.8746 17.2957ZM18.4407 14.8663C18.2974 15.1491 18.1335 15.4199 17.9509 15.6768L20.3963 17.4146C20.6645 17.0372 20.9055 16.639 21.1166 16.2226L18.4407 14.8663ZM20.7498 14.0445H19.7786V17.0445H20.7498V14.0445ZM20.2498 14.5445C20.2498 14.2683 20.4736 14.0445 20.7498 14.0445V17.0445C22.1305 17.0445 23.2498 15.9252 23.2498 14.5445H20.2498ZM20.2498 9.79447V14.5445H23.2498V9.79447H20.2498ZM20.7498 10.2945C20.4736 10.2945 20.2498 10.0706 20.2498 9.79447H23.2498C23.2498 8.41376 22.1305 7.29447 20.7498 7.29447V10.2945ZM19.9501 10.2945H20.7498V7.29447H19.9501V10.2945ZM18.1768 8.64175C18.3275 8.88545 18.4622 9.13988 18.5793 9.40357L21.3209 8.18538C21.1482 7.79673 20.9499 7.42217 20.7283 7.06383L18.1768 8.64175ZM18.5967 6.39632L18.1829 7.05404L20.7222 8.65155L21.136 7.99382L18.5967 6.39632ZM18.7537 7.08579C18.5199 6.93874 18.4497 6.63006 18.5967 6.39632L21.136 7.99382C21.8712 6.82515 21.5199 5.28173 20.3512 4.5465L18.7537 7.08579ZM14.7331 4.5564L18.7537 7.08579L20.3512 4.5465L16.3306 2.01712L14.7331 4.5564ZM15.4226 4.39944C15.2756 4.63317 14.9669 4.70345 14.7331 4.5564L16.3306 2.01712C15.162 1.28188 13.6185 1.63326 12.8833 2.80194L15.4226 4.39944ZM15.057 4.98051L15.4226 4.39944L12.8833 2.80194L12.5178 3.38301L15.057 4.98051ZM12.75 5.61404C13.0361 5.61404 13.3169 5.63279 13.5917 5.66894L13.9831 2.69458C13.5789 2.6414 13.1673 2.61404 12.75 2.61404V5.61404ZM12.1538 5.64145C12.3497 5.62334 12.5486 5.61404 12.75 5.61404V2.61404C12.4562 2.61404 12.1652 2.6276 11.8776 2.6542L12.1538 5.64145ZM10.3736 4.30363L10.7167 4.89783L13.3147 3.39783L12.9717 2.80363L10.3736 4.30363ZM11.0566 4.48665C10.8175 4.62472 10.5117 4.54278 10.3736 4.30363L12.9717 2.80363C12.2813 1.6079 10.7523 1.19821 9.55661 1.88857L11.0566 4.48665ZM6.94299 6.86165L11.0566 4.48665L9.55661 1.88857L5.44299 4.26357L6.94299 6.86165ZM7.126 6.17864C7.26407 6.41778 7.18214 6.72358 6.94299 6.86165L5.44299 4.26357C4.24726 4.95393 3.83757 6.4829 4.52792 7.67864L7.126 6.17864ZM7.51175 6.84677L7.126 6.17864L4.52792 7.67864L4.91367 8.34677L7.51175 6.84677ZM6.92069 9.40357C7.07151 9.06414 7.25129 8.74004 7.45702 8.43445L4.9684 6.7591C4.6661 7.20815 4.40146 7.68509 4.17915 8.18538L6.92069 9.40357ZM4.74976 10.2945H5.54992V7.29447H4.74976V10.2945ZM5.24976 9.79447C5.24976 10.0706 5.0259 10.2945 4.74976 10.2945V7.29447C3.36904 7.29447 2.24976 8.41376 2.24976 9.79447H5.24976ZM5.24976 14.5445V9.79447H2.24976V14.5445H5.24976ZM4.74976 14.0445C5.0259 14.0445 5.24976 14.2683 5.24976 14.5445H2.24976C2.24976 15.9252 3.36905 17.0445 4.74976 17.0445V14.0445ZM5.72142 14.0445H4.74976V17.0445H5.72142V14.0445ZM7.41532 15.4809C7.28565 15.2833 7.16673 15.0781 7.05937 14.8663L4.38346 16.2226C4.54157 16.5346 4.71653 16.8363 4.90712 17.1268L7.41532 15.4809ZM6.90258 17.9423L7.43086 17.1026L4.89157 15.5051L4.36329 16.3448L6.90258 17.9423ZM6.74562 17.2528C6.97935 17.3999 7.04963 17.7086 6.90258 17.9423L4.36329 16.3448C3.62806 17.5135 3.97944 19.0569 5.14811 19.7921L6.74562 17.2528ZM10.7662 19.7822L6.74562 17.2528L5.14811 19.7921L9.16865 22.3215L10.7662 19.7822ZM10.0767 19.9392C10.2237 19.7055 10.5324 19.6352 10.7662 19.7822L9.16865 22.3215C10.3373 23.0567 11.8808 22.7054 12.616 21.5367L10.0767 19.9392ZM10.6535 19.0224L10.0767 19.9392L12.616 21.5367L13.1927 20.6199L10.6535 19.0224ZM12.75 18.364C12.5228 18.364 12.2989 18.3522 12.0788 18.3292L11.7674 21.313C12.0908 21.3468 12.4187 21.364 12.75 21.364V18.364ZM13.1845 18.3495C13.0411 18.3591 12.8963 18.364 12.75 18.364V21.364C12.9633 21.364 13.1751 21.3569 13.3853 21.3428L13.1845 18.3495ZM15.126 20.035L14.5839 19.0962L11.9859 20.5962L12.5279 21.535L15.126 20.035ZM14.443 19.852C14.6821 19.714 14.9879 19.7959 15.126 20.035L12.5279 21.535C13.2183 22.7308 14.7473 23.1405 15.943 22.4501L14.443 19.852ZM18.5566 17.477L14.443 19.852L15.943 22.4501L20.0566 20.0751L18.5566 17.477Z" fill="#666666" mask="url(#path-3-inside-1_928_14598)"/>
</g>
</g>
</g>
</svg>
