<svg width="24" height="24" viewBox="0 0 24 24" fill="none" xmlns="http://www.w3.org/2000/svg">
<g id="&#230;&#136;&#145;&#231;&#154;&#132;&#231;&#190;&#164;&#232;&#129;&#138;">
<circle id="Ellipse 2059" cx="11.166" cy="7.5" r="3.5" stroke="#0F64FF" stroke-width="1.5"/>
<path id="Rectangle 34628106" d="M10.666 13H9.26602C6.17322 13 3.66602 15.5072 3.66602 18.6V18.6C3.66602 19.3732 4.29282 20 5.06602 20H10.666" stroke="#0F64FF" stroke-width="1.5" stroke-linecap="round" stroke-linejoin="round"/>
<path id="Rectangle 34628108" d="M13.666 12.25C13.2518 12.25 12.916 12.5858 12.916 13V17.6154C12.916 18.0296 13.2518 18.3654 13.666 18.3654H13.7732V19C13.7732 19.2889 13.9391 19.5522 14.1998 19.6767C14.4606 19.8013 14.7696 19.765 14.9944 19.5835L16.5025 18.3654H19.666C20.0802 18.3654 20.416 18.0296 20.416 17.6154V13C20.416 12.5858 20.0802 12.25 19.666 12.25H13.666Z" stroke="#0F64FF" stroke-width="1.5" stroke-linejoin="round"/>
</g>
</svg>
