<svg width="20" height="20" viewBox="0 0 20 20" fill="none" xmlns="http://www.w3.org/2000/svg">
<g id="&#230;&#182;&#136;&#230;&#129;&#175;&#229;&#133;&#141;&#230;&#137;&#147;&#230;&#137;&#176; - 20px">
<g id="Group 1142813931">
<ellipse id="Ellipse 116" cx="10.0825" cy="3.28853" rx="1.04737" ry="1.06636" fill="#CCCCCC"/>
<path id="Ellipse 117" d="M12.3672 14.8955C12.3672 16.1804 11.3441 17.2221 10.082 17.2221C8.81998 17.2221 7.79688 16.1804 7.79688 14.8955" stroke="#CCCCCC"/>
<path id="Vector 207" d="M3.5 3.30786L16.5 16.5435" stroke="#CCCCCC" stroke-linecap="round"/>
<path id="Subtract" fill-rule="evenodd" clip-rule="evenodd" d="M6.08205 5.23078C5.34499 6.14181 4.90235 7.309 4.90235 8.58146V11.8273L3.73808 14.4388C3.65247 14.6308 3.66853 14.854 3.78071 15.0312C3.8929 15.2085 4.08584 15.3156 4.29297 15.3156H14.6524C14.9889 15.3156 15.2617 15.0379 15.2617 14.6952V14.5769L14.043 13.336V14.0748H5.23878L6.06661 12.2179C6.10252 12.1374 6.1211 12.0499 6.1211 11.9615V8.58146C6.1211 7.65182 6.43006 6.79565 6.94913 6.11358L6.08205 5.23078ZM14.043 11.5812V8.58146C14.043 6.35423 12.2696 4.54871 10.082 4.54871C9.24745 4.54871 8.47314 4.81151 7.8346 5.26028L6.96184 4.3717C7.82964 3.70391 8.91042 3.30786 10.082 3.30786C12.9427 3.30786 15.2617 5.66893 15.2617 8.58146V12.8221L14.043 11.5812Z" fill="#CCCCCC"/>
</g>
</g>
</svg>
