<svg width="24" height="24" viewBox="0 0 24 24" fill="none" xmlns="http://www.w3.org/2000/svg">
<g id="&#231;&#189;&#174;&#233;&#161;&#182; - 24px">
<g id="Group 1142814028">
<path id="Vector 221" d="M6.55664 3.38867L17.4455 3.38867" stroke="#333333" stroke-width="1.5" stroke-linecap="round"/>
<path id="Vector 222 (Stroke)" fill-rule="evenodd" clip-rule="evenodd" d="M11.451 5.95046C11.7547 5.64672 12.2472 5.64672 12.5509 5.95046L17.5007 10.9002C17.8044 11.204 17.8044 11.6964 17.5007 12.0002C17.1969 12.3039 16.7045 12.3039 16.4007 12.0002L12.7787 8.37816V20.5004C12.7787 20.93 12.4305 21.2782 12.001 21.2782C11.5714 21.2782 11.2232 20.93 11.2232 20.5004V8.37816L7.60119 12.0002C7.29745 12.3039 6.80498 12.3039 6.50124 12.0002C6.1975 11.6964 6.1975 11.204 6.50124 10.9002L11.451 5.95046Z" fill="#333333"/>
</g>
</g>
</svg>
