<svg width="18" height="20" viewBox="0 0 18 20" fill="none" xmlns="http://www.w3.org/2000/svg">
<g id="Group 1142814072">
<g id="Group 1142814065">
<path id="Rectangle 34628163" d="M15 7V2C15 1.44772 14.5523 1 14 1H8H2C1.44772 1 1 1.44772 1 2V16C1 16.5523 1.44772 17 2 17H6" stroke="white" stroke-width="1.5" stroke-linecap="round"/>
<path id="Vector 242" d="M4 5H12" stroke="white" stroke-width="1.5" stroke-linecap="round"/>
<path id="Vector 243" d="M4 9H12" stroke="white" stroke-width="1.5" stroke-linecap="round"/>
<path id="Vector 244" d="M4 13H8" stroke="white" stroke-width="1.5" stroke-linecap="round"/>
</g>
<path id="Rectangle 34628165" d="M14.4745 9.22273C14.8651 8.83221 15.4982 8.83221 15.8887 9.22273L16.5959 9.92984C16.9864 10.3204 16.9864 10.9535 16.5959 11.3441L11.39 16.5499C11.2924 16.6475 11.1757 16.7238 11.0473 16.7741L9.88557 17.2287C9.07351 17.5464 8.27217 16.7451 8.58993 15.933L9.0445 14.7713C9.09477 14.6429 9.17109 14.5262 9.26864 14.4286L14.4745 9.22273Z" stroke="white" stroke-width="1.5"/>
</g>
</svg>
